<svg xmlns="http://www.w3.org/2000/svg" width="16" height="16" viewBox="0 0 16 16">
  <path d="M5.602 15c-1.233.004-2.415-.492-3.276-1.374-.848-.859-1.321-2.018-1.317-3.225-.001-1.206.476-2.364 1.326-3.221.856-.859 2.017-1.344 3.23-1.347.09 0 .18 0 .27.008l4.612-4.618c.143-.142.337-.222.539-.223.05 0 .101.005.15.015l2.699.541c.303.06.54.297.6.6l.541 2.707c.05.251-.028.511-.209.692l-.094.093c-.143.145-.338.226-.541.225H12.92v1.214c0 .203-.079.398-.222.542l-.727.727c-.143.143-.337.224-.54.225h-.035l-1.274-.058V9.89c.092 1.386-.376 2.75-1.3 3.788l-.054.052c-.852.816-1.987 1.271-3.166 1.27zm-.086-6.53c-.546-.003-1.071.213-1.458.6-.802.805-.802 2.106 0 2.911.386.386.91.602 1.456.6.546.002 1.07-.214 1.456-.6.387-.386.605-.91.607-1.457-.002-.547-.22-1.071-.607-1.458-.387-.383-.91-.597-1.454-.593V8.47z"/>
</svg>