<svg xmlns="http://www.w3.org/2000/svg" width="16" height="16" viewBox="0 0 16 16">
  <path d="m4.111 8.46.901-.901c.108-.108.111-.284.002-.391-.111-.108-.112-.286-.002-.396.108-.109.284-.109.393 0l.895.896.713-.713.786-.786.697-.697-.699-.698 2.356-1.77c.217-.217.233-.587 0-.786C8.765 1.031 5.498.954 2.655 4.02c-.104.112-.112.286-.004.392.111.108.111.286.002.395-.109.11-.287.109-.395-.002-.106-.109-.283-.105-.391.002l-.704.705c-.217.217-.217.569 0 .786L3.324 8.46c.218.217.569.217.787 0zM14.837 12.37 11.38 8.913l-.705.705-.508.508-.705.705 3.457 3.457c.217.217.569.217.786 0l1.131-1.131c.218-.218.218-.57.001-.787zM14.988 3.021c.088-.559-.394-1.042-.954-.954l-2.208.804L3 11.698c-.651.651-.651 1.314 0 1.965l.393.393c.651.651 1.314.651 1.965 0l8.826-8.826.804-2.209zM4.725 13.117c-.109.109-.285.109-.393 0l-.389-.389c-.109-.109-.109-.285 0-.393l.983-.983.782.782-.983.983zm8.524-8.656-.65-.65 1.035-.388-.385 1.038z"/>
</svg>