<svg xmlns="http://www.w3.org/2000/svg" width="16" height="16" viewBox="0 0 16 16">
  <path d="M5 14.364c-2.209 0-4-1.791-4-4s1.791-4 4-4h6c2.209 0 4 1.791 4 4s-1.791 4-4 4H5zm-2-4.018c0 .269.213.49.482.5h1v1c-.007.183.087.355.244.448.077.046.166.07.256.07s.178-.024.255-.07c.158-.093.251-.265.245-.448v-1H6.5c.177-.001.34-.094.431-.245.093-.157.093-.353 0-.51-.09-.152-.253-.245-.429-.245H5.484v-1c-.01-.269-.231-.482-.5-.482s-.49.213-.5.482v1h-1c-.27.009-.484.23-.484.5zm7.626 1.144c.001.345.28.624.625.625.345-.001.624-.28.625-.625-.001-.345-.28-.624-.625-.625-.345 0-.625.28-.625.625zm1.125-1.125c.001.345.281.625.626.625.345-.001.624-.28.625-.625 0-.345-.28-.625-.625-.625-.346-.001-.626.279-.626.625zm-2.25 0c.001.345.28.624.625.625.345-.001.624-.28.625-.625 0-.345-.28-.625-.625-.625s-.625.28-.625.625zm1.125-1.125c.001.345.28.624.625.625.345-.001.624-.28.625-.625-.001-.345-.28-.624-.625-.625-.344 0-.623.277-.626.621l.001.004zm-3.25-3.875v-.437c-.1-1.074.69-2.025 1.764-2.125.12-.011.241-.011.361 0h1c.453.029.844-.314.874-.767.002-.026.002-.052.001-.078-.005-.062 0-.706 0-.706.004-.341.282-.616.624-.616h.01c.345.005.62.288.615.633v.657c.039 1.135-.85 2.086-1.985 2.125-.045.002-.091.002-.136 0h-1c-.638 0-.875.238-.875.875v.437l-1.253.002z"/>
</svg>