<svg xmlns="http://www.w3.org/2000/svg" width="16" height="16" viewBox="0 0 16 16">
  <path d="M4.413 11.575V8.751c-.003-.496-.404-.897-.9-.9-.497 0-.9.403-.9.9v5.459c0 .372-.301.673-.673.673-.372 0-.673-.301-.673-.673V8.751c.001-1.239 1.004-2.245 2.243-2.25 1.242.001 2.248 1.007 2.25 2.248v2.824c.002 1.149.932 2.079 2.081 2.081 1.148-.002 2.079-.933 2.08-2.081V9.447H7.393c-.52 0-.941-.421-.941-.941V4.535c0-.52.421-.941.941-.941h.386V1.673c0-.372.301-.673.673-.673.372 0 .673.301.673.673v1.921h2.936V1.673c0-.371.301-.672.672-.673.372 0 .673.301.673.673v1.921h.386c.519.001.94.422.941.941v3.971c-.001.519-.422.94-.941.941h-2.527v2.126c-.001 1.891-1.533 3.425-3.424 3.428-1.892-.002-3.425-1.535-3.428-3.426z"/>
</svg>