<svg xmlns="http://www.w3.org/2000/svg" width="16" height="16" viewBox="0 0 16 16">
  <path d="M13.879 8.511H12.68l-2.012-6.13c-.202-.591-.844-.906-1.435-.704-.336.115-.598.38-.709.717L6.825 9.206c-.017.068-.086.11-.155.093a.12612.12612 0 0 1-.09-.082l-1.449-4.12c-.127-.435-.508-.748-.959-.787-.454-.051-.894.176-1.114.576L1.13 8.511c-.271.508-.104 1.14.383 1.447.512.327 1.191.177 1.518-.334.015-.024.03-.049.043-.074l.838-1.548 1.773 5.587c.184.596.816.93 1.412.746.349-.108.625-.378.739-.726l1.929-7.066.999 3.312c.148.463.583.774 1.069.765h2.045c.582.036 1.082-.407 1.118-.988.036-.582-.407-1.082-.988-1.118a.94001.94001 0 0 0-.13 0l.001-.003z"/>
</svg>