<svg xmlns="http://www.w3.org/2000/svg" width="16" height="16" viewBox="0 0 16 16">
  <path d="M9.75 8.729h1.303c.296.772 1.045 1.32 1.923 1.312 1.088-.008 2.008-.923 2.024-2.011.016-1.141-.904-2.072-2.041-2.072-.87 0-1.611.546-1.905 1.313H9.75v-3.5h1.303c.296.772 1.045 1.32 1.923 1.312 1.088-.009 2.008-.923 2.024-2.011C15.016 1.93 14.096 1 12.958 1c-.87 0-1.611.546-1.905 1.313H8.875c-.322 0-.583.261-.583.583v4.375H7.125V5.667c0-.322-.261-.583-.583-.583H1.583C1.261 5.083 1 5.345 1 5.667v4.667c0 .322.261.583.583.583h4.958c.322 0 .583-.261.583-.583V8.729h1.167v4.375c0 .322.261.583.583.583h2.178c.296.772 1.045 1.32 1.923 1.312 1.088-.009 2.008-.923 2.024-2.012.016-1.141-.904-2.072-2.041-2.072-.87 0-1.611.546-1.905 1.313H9.75V8.729zm3.037-1.588c.615-.117 1.147.415 1.03 1.03-.065.342-.345.622-.687.687-.615.118-1.148-.415-1.03-1.03.065-.342.345-.621.687-.687zm0-4.958c.615-.117 1.147.415 1.03 1.03-.065.342-.345.622-.687.687-.615.118-1.148-.415-1.03-1.03.065-.342.345-.622.687-.687zm0 9.917c.615-.117 1.147.415 1.03 1.03-.065.342-.345.622-.687.687-.615.118-1.148-.415-1.03-1.03.065-.342.345-.622.687-.687z"/>
</svg>