<svg xmlns="http://www.w3.org/2000/svg" width="16" height="16" viewBox="0 0 16 16">
  <path d="M11.032 3.777c.54.048 1.037.298 1.404.71.399.447.599 1.024.562 1.624l-.002.027-.001.027c-.112 3.314-3.536 5.23-4.995 5.898-1.446-.663-4.806-2.548-4.993-5.818-.053-.666.136-1.283.53-1.737.36-.415.871-.672 1.445-.73.67-.118 1.44.039 2.112.886l.916 1.004.79-.959c.763-.933 1.56-1.049 2.232-.932m.028-2c-1.227.027-2.366.644-3.06 1.656-.692-1.01-1.828-1.627-3.053-1.656C2.573 1.927.82 3.91 1.015 6.401 1.332 11.942 8 14.223 8 14.223s6.8-2.328 6.992-7.991c.141-2.31-1.608-4.333-3.932-4.455z"/>
</svg>