<svg xmlns="http://www.w3.org/2000/svg" width="16" height="16" viewBox="0 0 16 16">
  <path d="M9.749 12.498c0-1.381 1.119-2.5 2.5-2.5s2.5 1.119 2.5 2.5-1.119 2.5-2.5 2.5-2.5-1.119-2.5-2.5zm-7.6 2.25c-.497 0-.9-.403-.9-.9v-2.7c0-.497.403-.9.9-.9h2.7c.497 0 .9.403.9.9v2.7c0 .497-.403.9-.9.9h-2.7zm5.96-.733-1.31-1.385a.37856.37856 0 0 1 0-.517l1.306-1.382.02-.021c.136-.123.346-.114.47.021.135.146.135.372 0 .518l-1.061 1.124 1.065 1.125c.065.071.101.164.1.26 0 .096-.036.188-.1.259l-.022.02c-.061.056-.141.088-.224.088-.093 0-.182-.04-.244-.11zm3.755-4.918-1.382-1.306-.02-.02c-.124-.135-.115-.346.02-.47.146-.135.372-.135.518 0l1.124 1.061 1.123-1.067c.071-.065.164-.101.26-.1.096 0 .188.035.259.1l.02.022c.124.135.115.345-.02.469l-1.385 1.309c-.071.065-.163.101-.259.1-.095.001-.187-.033-.258-.097v-.001zm-.173-2.83L9.733 4.309c-.308-.309-.308-.809 0-1.117l1.959-1.959c.309-.309.81-.309 1.119 0l1.958 1.959c.309.309.309.81 0 1.119L12.81 6.269c-.148.149-.349.232-.559.232-.21.001-.412-.083-.56-.234zM.999 3.748c0-1.381 1.119-2.5 2.5-2.5s2.5 1.119 2.5 2.5-1.119 2.5-2.5 2.5-2.5-1.119-2.5-2.5zm5.8 1.642c-.135-.146-.135-.372 0-.518L7.86 3.748 6.794 2.625c-.065-.071-.101-.164-.1-.26-.001-.096.035-.188.1-.259l.021-.02c.135-.124.345-.115.469.02l1.31 1.385c.136.146.136.372 0 .518L7.287 5.391l-.02.021c-.061.057-.142.088-.225.087-.093 0-.181-.04-.243-.109z"/>
</svg>