<svg xmlns="http://www.w3.org/2000/svg" width="16" height="16" viewBox="0 0 16 16">
  <path d="M5.058 15c-2.24-.002-4.056-1.818-4.058-4.059v-5.35c.002-2.24 1.818-4.056 4.058-4.058h1.123c.69 0 1.25.56 1.25 1.25s-.56 1.25-1.25 1.25H5.058c-.86.002-1.556.698-1.558 1.557v5.35c0 .861.697 1.559 1.558 1.56h5.35c.86-.001 1.557-.699 1.558-1.559V9.8c.001-.69.56-1.249 1.25-1.25.69.001 1.249.56 1.25 1.25v1.141c-.002 2.24-1.818 4.056-4.058 4.059h-5.35zm1.9-5.955c-.465-.464-.466-1.219-.001-1.684l.001-.001 3.977-3.977h-.865c-.658 0-1.192-.534-1.193-1.192C8.878 1.533 9.412 1 10.07 1h3.741c.657.001 1.19.535 1.189 1.192v3.743c0 .658-.533 1.191-1.191 1.191h-.001c-.657.001-1.19-.532-1.191-1.189v-.87L8.639 9.044c-.223.224-.526.35-.842.349-.316 0-.619-.125-.842-.348h.003z" fill="white"/>
</svg>
