<svg xmlns="http://www.w3.org/2000/svg" width="16" height="16" viewBox="0 0 16 16">
  <path d="M5.058 14.999c-2.24-.003-4.055-1.818-4.058-4.057v-5.35c.002-2.24 1.818-4.055 4.058-4.058h1.123c.69 0 1.25.56 1.25 1.25s-.56 1.25-1.25 1.25H5.058c-.86.001-1.557.698-1.558 1.558v5.349c.001.86.698 1.557 1.558 1.558h5.35c.86-.001 1.557-.699 1.558-1.559V9.8c.001-.69.56-1.249 1.25-1.25.69.001 1.249.56 1.25 1.25v1.141c-.002 2.24-1.817 4.056-4.058 4.059h-5.35zM10.499 5.5c-.494-.495-.771-1.165-.771-1.864 0-1.066.642-2.027 1.627-2.435.985-.408 2.119-.182 2.873.572s.98 1.889.571 2.874c-.408.984-1.369 1.626-2.435 1.626-.7 0-1.37-.278-1.865-.773z"/>
</svg>