<svg xmlns="http://www.w3.org/2000/svg" width="16" height="16" viewBox="0 0 16 16">
  <path d="M7.993 14.768c-1.227.071-2.318-.777-2.551-1.984h5.1c-.224 1.154-1.234 1.988-2.41 1.989-.043-.005-.091-.005-.139-.005zm-6.332-3.336c-.366-.001-.662-.297-.661-.663 0-.175.07-.342.193-.466l1.514-1.791c.248-.248.387-.584.387-.935V5.859c.132-2.664 2.38-4.727 5.046-4.629 2.596.123 4.66 2.224 4.737 4.822v1.524c0 .351.139.687.387.935l1.542 1.791c.258.258.259.676.001.935-.124.124-.293.194-.468.194l-12.678.001z"/>
</svg>