<svg xmlns="http://www.w3.org/2000/svg" width="80" height="16" viewBox="0 0 80 16">
  <g opacity=".4">
    <path d="M4.213 14.831c-.508.001-.92-.41-.921-.917 0-.068.007-.136.022-.202l.889-3.957L1.34 7.402c-.394-.32-.455-.898-.135-1.292.154-.19.378-.311.621-.335l3.59-.384 1.753-3.698c.219-.459.769-.653 1.228-.434.19.091.343.244.433.434l1.753 3.698 3.59.381c.505.051.873.501.822 1.006-.024.243-.145.467-.335.621l-2.862 2.353.89 3.956c.111.496-.202.987-.697 1.098-.232.052-.474.012-.677-.111L8 12.685l-3.314 2.014c-.144.085-.307.131-.473.132zm3.786-4.38c.094.001.186.029.266.079l2.199 1.199-.562-2.505c-.042-.189.025-.386.175-.509l1.775-1.611-2.273-.241c-.178-.02-.333-.13-.41-.292l-1.23-2.343-1.11 2.343c-.077.162-.233.273-.411.292l-2.308.36 1.814 1.492c.15.123.218.32.175.509l-.568 2.506 2.199-1.204c.081-.049.174-.075.269-.075zM20.213 14.831c-.508.001-.92-.41-.921-.917 0-.068.007-.136.022-.202l.889-3.957-2.863-2.353c-.394-.32-.454-.898-.134-1.292.154-.19.378-.311.621-.335l3.59-.384 1.753-3.698c.219-.459.769-.653 1.227-.434.19.091.343.244.434.434l1.753 3.698 3.59.381c.505.051.873.501.822 1.006-.024.243-.145.467-.335.621l-2.862 2.353.89 3.956c.111.496-.202.987-.697 1.098-.232.052-.474.012-.677-.111l-3.314-2.01-3.314 2.014c-.144.085-.307.131-.474.132zm3.786-4.38c.094.001.186.029.266.079l2.199 1.199-.562-2.506c-.042-.189.025-.386.175-.509l1.775-1.611-2.273-.241c-.178-.02-.333-.13-.41-.292l-1.23-2.343-1.109 2.344c-.078.162-.233.272-.412.292l-2.308.36 1.814 1.492c.15.123.218.32.175.509l-.568 2.506 2.199-1.204c.082-.049.174-.075.269-.075zM36.213 14.831c-.508.001-.92-.41-.921-.917 0-.068.007-.136.022-.202l.889-3.957-2.863-2.353c-.394-.32-.454-.898-.134-1.292.154-.19.378-.311.621-.335l3.59-.384 1.753-3.698c.219-.459.769-.653 1.227-.434.19.091.343.244.434.434l1.753 3.698 3.59.381c.505.051.873.501.822 1.006-.024.243-.145.467-.335.621l-2.862 2.353.89 3.956c.111.496-.202.987-.697 1.098-.232.052-.474.012-.677-.111l-3.314-2.01-3.314 2.014c-.144.085-.307.131-.474.132zm3.786-4.38c.094.001.186.029.266.079l2.199 1.199-.562-2.506c-.042-.189.025-.386.175-.509l1.775-1.611-2.273-.241c-.178-.02-.333-.13-.41-.292l-1.23-2.343-1.109 2.344c-.078.162-.233.272-.412.292l-2.308.36 1.814 1.492c.15.123.218.32.175.509l-.568 2.506 2.199-1.204c.082-.049.174-.075.269-.075zM52.213 14.831c-.508.001-.92-.41-.921-.917 0-.068.007-.136.022-.202l.889-3.957-2.863-2.353c-.394-.32-.454-.898-.134-1.292.154-.19.378-.311.621-.335l3.59-.384 1.753-3.698c.219-.459.769-.653 1.227-.434.19.091.343.244.434.434l1.753 3.698 3.59.381c.505.051.873.501.822 1.006-.024.243-.145.467-.335.621l-2.862 2.353.89 3.956c.111.496-.202.987-.697 1.098-.232.052-.474.012-.677-.111l-3.314-2.01-3.314 2.014c-.144.085-.307.131-.474.132zm3.786-4.38c.094.001.186.029.266.079l2.199 1.199-.562-2.506c-.042-.189.025-.386.175-.509l1.775-1.611-2.273-.241c-.178-.02-.333-.13-.41-.292l-1.23-2.343-1.109 2.344c-.078.162-.233.272-.412.292l-2.308.36 1.814 1.492c.15.123.218.32.175.509l-.568 2.506 2.199-1.204c.082-.049.174-.075.269-.075zM68.213 14.831c-.508.001-.92-.41-.921-.917 0-.068.007-.136.022-.202l.889-3.957-2.863-2.353c-.394-.32-.454-.898-.134-1.292.154-.19.378-.311.621-.335l3.59-.384 1.753-3.698c.219-.459.769-.653 1.227-.434.19.091.343.244.434.434l1.753 3.698 3.59.381c.505.051.873.501.822 1.006-.024.243-.145.467-.335.621l-2.862 2.353.89 3.956c.111.496-.202.987-.697 1.098-.232.052-.474.012-.677-.111l-3.314-2.01-3.314 2.014c-.144.085-.307.131-.474.132zm3.786-4.38c.094.001.186.029.266.079l2.199 1.199-.562-2.506c-.042-.189.025-.386.175-.509l1.775-1.611-2.273-.241c-.178-.02-.333-.13-.41-.292l-1.23-2.343-1.109 2.344c-.078.162-.233.272-.412.292l-2.308.36 1.814 1.492c.15.123.218.32.175.509l-.568 2.506 2.199-1.204c.082-.049.174-.075.269-.075z"/>
  </g>
  <path fill="#FC0" d="M4.208 14.809c-.192 0-.38-.06-.536-.173-.299-.215-.441-.587-.361-.947L4.2 9.733 1.339 7.38c-.289-.235-.408-.621-.3-.977.106-.357.417-.614.788-.651l3.588-.381 1.753-3.7c.154-.319.477-.522.831-.522h.007v11.518h-.007L4.687 14.68c-.145.086-.31.131-.479.129z"/>
</svg>