<svg xmlns="http://www.w3.org/2000/svg" width="80" height="16" viewBox="0 0 80 16">
  <g fill="#FC0">
    <path d="m8.828 1.694 1.753 3.697 3.589.381c.505.049.874.498.825 1.003-.024.246-.146.472-.339.627L11.79 9.755l.885 3.956c.111.495-.2.986-.694 1.097-.232.052-.475.012-.679-.111l-3.309-2.013-3.308 2.012c-.434.263-.999.125-1.263-.309-.122-.203-.162-.446-.11-.677l.885-3.955-2.858-2.353c-.393-.32-.453-.898-.134-1.292.154-.19.378-.311.622-.335l3.588-.381 1.753-3.7c.218-.459.766-.654 1.225-.436.191.091.345.245.435.436zM24.81 1.694l1.753 3.697 3.589.381c.505.049.874.498.825 1.003-.024.246-.146.472-.339.627l-2.866 2.353.885 3.956c.111.495-.2.986-.694 1.097-.232.052-.475.012-.679-.111l-3.309-2.013-3.308 2.012c-.434.263-.999.125-1.263-.309-.123-.203-.163-.445-.111-.677l.885-3.955-2.858-2.353c-.394-.32-.454-.898-.134-1.292.154-.19.378-.311.622-.335l3.588-.381 1.753-3.7c.218-.459.766-.654 1.225-.436.191.091.345.245.436.436zM40.829 1.694l1.753 3.697 3.589.381c.505.049.874.498.825 1.003-.024.246-.146.472-.339.627l-2.866 2.353.885 3.956c.111.495-.2.986-.694 1.097-.232.052-.475.012-.679-.111l-3.309-2.013-3.308 2.012c-.434.263-.999.125-1.263-.309-.123-.203-.163-.445-.111-.677l.885-3.955-2.857-2.353c-.394-.32-.454-.898-.134-1.292.154-.19.378-.311.622-.335l3.588-.381 1.753-3.7c.218-.459.766-.654 1.225-.436.19.091.344.245.435.436zM56.829 1.694l1.753 3.697 3.589.381c.505.049.874.498.825 1.003-.024.246-.146.472-.339.627l-2.866 2.353.885 3.956c.111.495-.2.986-.694 1.097-.232.052-.475.012-.679-.111l-3.309-2.013-3.308 2.012c-.434.263-.999.125-1.263-.309-.123-.203-.163-.445-.111-.677l.885-3.955-2.857-2.353c-.394-.32-.454-.898-.134-1.292.154-.19.378-.311.622-.335l3.588-.381 1.753-3.7c.218-.459.766-.654 1.225-.436.19.091.344.245.435.436zM72.81 1.694l1.753 3.697 3.589.381c.505.049.874.498.825 1.003-.024.246-.146.472-.339.627l-2.866 2.353.885 3.956c.111.495-.2.986-.694 1.097-.232.052-.475.012-.679-.111l-3.309-2.013-3.308 2.012c-.434.263-.999.125-1.263-.309-.123-.203-.163-.445-.111-.677l.885-3.955-2.858-2.353c-.394-.32-.454-.898-.134-1.292.154-.19.378-.311.622-.335l3.588-.381 1.753-3.7c.218-.459.766-.654 1.225-.436.191.091.345.245.436.436z"/>
  </g>
</svg>