<svg xmlns="http://www.w3.org/2000/svg" width="80" height="16" viewBox="0 0 80 16">
  <g opacity=".4">
    <path d="M52.213 14.831c-.508.001-.92-.41-.921-.917 0-.068.007-.136.022-.202l.889-3.957-2.863-2.353c-.394-.32-.454-.898-.134-1.292.154-.19.378-.311.621-.335l3.59-.384 1.753-3.698c.219-.459.769-.653 1.227-.434.19.091.343.244.434.434l1.753 3.698 3.59.381c.505.051.873.501.822 1.006-.024.243-.145.467-.335.621l-2.862 2.353.89 3.956c.111.496-.202.987-.697 1.098-.232.052-.474.012-.677-.111l-3.314-2.01-3.314 2.014c-.144.085-.307.131-.474.132zm3.786-4.38c.094.001.186.029.266.079l2.199 1.199-.562-2.506c-.042-.189.025-.386.175-.509l1.775-1.611-2.273-.241c-.178-.02-.333-.13-.41-.292l-1.23-2.343-1.109 2.344c-.078.162-.233.272-.412.292l-2.308.36 1.814 1.492c.15.123.218.32.175.509l-.568 2.506 2.199-1.204c.082-.049.174-.075.269-.075zM68.213 14.831c-.508.001-.92-.41-.921-.917 0-.068.007-.136.022-.202l.889-3.957-2.863-2.353c-.394-.32-.454-.898-.134-1.292.154-.19.378-.311.621-.335l3.59-.384 1.753-3.698c.219-.459.769-.653 1.227-.434.19.091.343.244.434.434l1.753 3.698 3.59.381c.505.051.873.501.822 1.006-.024.243-.145.467-.335.621l-2.862 2.353.89 3.956c.111.496-.202.987-.697 1.098-.232.052-.474.012-.677-.111l-3.314-2.01-3.314 2.014c-.144.085-.307.131-.474.132zm3.786-4.38c.094.001.186.029.266.079l2.199 1.199-.562-2.506c-.042-.189.025-.386.175-.509l1.775-1.611-2.273-.241c-.178-.02-.333-.13-.41-.292l-1.23-2.343-1.109 2.344c-.078.162-.233.272-.412.292l-2.308.36 1.814 1.492c.15.123.218.32.175.509l-.568 2.506 2.199-1.204c.082-.049.174-.075.269-.075z"/>
  </g>
  <path fill="#FC0" d="m8.828 1.694 1.753 3.697 3.589.381c.505.049.874.498.825 1.003-.024.246-.146.472-.339.627L11.79 9.755l.885 3.956c.111.495-.2.986-.694 1.097-.232.052-.475.012-.679-.111l-3.309-2.013-3.308 2.012c-.434.263-.999.125-1.263-.309-.122-.203-.162-.446-.11-.677l.885-3.955-2.858-2.353c-.393-.32-.453-.898-.134-1.292.154-.19.378-.311.622-.335l3.588-.381 1.753-3.7c.218-.459.766-.654 1.225-.436.191.091.345.245.435.436zM24.81 1.694l1.753 3.697 3.589.381c.505.049.874.498.825 1.003-.024.246-.146.472-.339.627l-2.866 2.353.885 3.956c.111.495-.2.986-.694 1.097-.232.052-.475.012-.679-.111l-3.309-2.013-3.308 2.012c-.434.263-.999.125-1.263-.309-.123-.203-.163-.445-.111-.677l.885-3.955-2.858-2.353c-.394-.32-.454-.898-.134-1.292.154-.19.378-.311.622-.335l3.588-.381 1.753-3.7c.218-.459.766-.654 1.225-.436.191.091.345.245.436.436zM40.829 1.694l1.753 3.697 3.589.381c.505.049.874.498.825 1.003-.024.246-.146.472-.339.627l-2.866 2.353.885 3.956c.111.495-.2.986-.694 1.097-.232.052-.475.012-.679-.111l-3.309-2.013-3.308 2.012c-.434.263-.999.125-1.263-.309-.123-.203-.163-.445-.111-.677l.885-3.955-2.857-2.353c-.394-.32-.454-.898-.134-1.292.154-.19.378-.311.622-.335l3.588-.381 1.753-3.7c.218-.459.766-.654 1.225-.436.19.091.344.245.435.436z"/>
</svg>