<svg xmlns="http://www.w3.org/2000/svg" width="16" height="16" viewBox="0 0 16 16">
  <path d="M4.781 15c-.601-.004-1.107-.452-1.183-1.048l-.981-7.423c-.042-.334.195-.638.528-.68.024-.003.048-.005.072-.005h9.566c.336.002.607.277.605.613 0 .024-.002.048-.005.072l-.98 7.423c-.076.598-.585 1.047-1.188 1.048H4.781zM1.939 4.225c-.336 0-.608-.272-.608-.608V2.441c-.001-.336.271-.608.607-.609H5.5V1.66c0-.56.458-.66 1.022-.66h2.937c.564 0 1.026.1 1.026.66v.172h3.575c.336 0 .609.273.609.609v1.176c-.001.336-.273.608-.609.608H1.939z" fill="white"/>
</svg>
