<svg xmlns="http://www.w3.org/2000/svg" width="16" height="16" viewBox="0 0 16 16">
  <path d="M14.208 1.033 1.602 5.88c-.316.122-.474.478-.352.795.065.169.202.301.373.36l2.8.981c.249.087.524.059.75-.078l6.117-3.689c.098-.05.219-.011.269.087.037.072.026.159-.026.221l-4.59 4.662c-.164.145-.259.353-.26.573L6.661 14.6c.014.235.217.414.452.4.153-.009.289-.1.357-.237l1.686-3.42c.207-.331.641-.437.977-.238l2.991 1.65c.314.172.709.058.881-.257.046-.083.073-.176.079-.27l.708-10.806c0-.232-.186-.421-.417-.422-.058 0-.114.011-.167.033z" fill="white"/>
</svg>
