<svg xmlns="http://www.w3.org/2000/svg" width="16" height="16" viewBox="0 0 16 16">
  <path d="M14.294 1.78v7.892c-.009.374-.047.747-.113 1.115-.128.58-.411 1.114-.82 1.545-.566.56-1.325.882-2.121.9-.543.013-1.069-.186-1.467-.555-.859-1.026-.724-2.555.302-3.414.018-.015.037-.03.056-.045.468-.409 1.038-.686 1.65-.8.189-.04.328-.201.34-.394V4.431c.01-.11-.071-.207-.181-.217-.026-.002-.053 0-.078.008l-4.735.848c-.192.04-.333.204-.344.4 0 6.671-.01 6.68-.01 6.699-.036.741-.368 1.437-.92 1.933-.566.558-1.324.879-2.119.898-.54.011-1.063-.188-1.46-.555-.862-1.026-.729-2.557.297-3.419.018-.015.037-.031.056-.046.47-.407 1.039-.683 1.65-.8.181-.031.4-.219.4-.394V3.338c-.011-.4.281-.745.678-.8l8.063-1.537c.033-.002.067-.002.1 0 .416.031.747.363.776.779z"/>
</svg>