<svg xmlns="http://www.w3.org/2000/svg" width="16" height="16" viewBox="0 0 16 16">
  <path d="M13.252 14.125h-10.5c-.965-.005-1.745-.785-1.752-1.75v-8.75c.002-.964.781-1.745 1.745-1.75H6.9c.371.005.728.147 1 .4l1.33 1.336 4.029.009c.964.007 1.742.791 1.741 1.755v7c.002.465-.184.912-.514 1.24-.327.328-.771.511-1.234.51zM7.143 9.813l1.382.866c-.048.14-.072.288-.073.436.002.75.609 1.357 1.359 1.359.749-.002 1.356-.608 1.359-1.357-.002-.75-.609-1.357-1.359-1.359-.357 0-.7.141-.953.393l-1.383-.868c.047-.139.071-.286.071-.433 0-.147-.024-.292-.071-.431l1.386-.866c.253.249.595.389.95.39.75-.002 1.357-.61 1.359-1.36-.002-.75-.609-1.357-1.359-1.359-.75.002-1.357.609-1.359 1.359 0 .15.025.3.075.442l-1.382.863c-.253-.255-.598-.399-.957-.4-.75.002-1.357.609-1.359 1.359.003.749.61 1.355 1.359 1.357.358 0 .7-.142.954-.394l.001.003z" fill="#0590CC"/>
</svg>