<svg xmlns="http://www.w3.org/2000/svg" width="16" height="16" viewBox="0 0 16 16">
  <path d="M13.252 14.125h-10.5c-.965-.005-1.745-.785-1.752-1.75v-8.75c.002-.964.781-1.745 1.745-1.75H6.9c.371.005.728.147 1 .4l1.33 1.336 4.029.009c.964.007 1.742.791 1.741 1.755v7c.002.465-.184.912-.514 1.24-.327.328-.771.511-1.234.51zM8 10.985l1.755 1.069c.076.046.164.07.253.07.102 0 .202-.032.285-.091.158-.114.233-.31.191-.5l-.47-2.1 1.518-1.248c.155-.124.219-.329.162-.519-.056-.19-.222-.327-.42-.346l-1.9-.2-.93-1.962c-.081-.172-.254-.283-.444-.283-.188.001-.359.109-.441.278l-.93 1.964-1.9.2c-.197.019-.363.155-.419.345-.057.189.006.394.16.518l1.518 1.248-.472 2.1c-.042.19.034.387.192.5.083.06.183.091.285.091.089 0 .177-.025.253-.071L8 10.986v-.001z" fill="#0590CC"/>
</svg>