<svg xmlns="http://www.w3.org/2000/svg" width="16" height="16" viewBox="0 0 16 16">
  <path d="m13.257 3.625-4.03-.009-1.335-1.341c-.27-.251-.623-.393-.992-.4H2.741c-.962.008-1.738.788-1.741 1.75v8.75c.007.966.79 1.747 1.756 1.75h10.499c.461.001.904-.182 1.23-.509.329-.329.515-.775.515-1.241v-7c-.002-.963-.78-1.744-1.743-1.75zm-2.151 7.694c-.015.243-.132.469-.323.621-.185.149-.415.23-.653.228H5.869c-.238.002-.469-.079-.654-.228-.19-.152-.307-.378-.322-.622V8.845c.02-.365.269-.677.621-.776V7.18C5.581 5.871 6.692 4.862 8 4.921c1.308-.059 2.418.95 2.485 2.258v.889c.352.099.601.411.621.777v2.474z" fill="#0590CC"/>
  <path d="M8 6.05c-.654-.028-1.208.476-1.242 1.129V8h2.485v-.821C9.209 6.525 8.654 6.021 8 6.05z" fill="#0590CC"/>
</svg>