<svg xmlns="http://www.w3.org/2000/svg" width="16" height="16" viewBox="0 0 16 16">
  <path d="M13.255 14.125H2.756c-.966-.003-1.749-.784-1.756-1.75v-8.75c.003-.962.779-1.742 1.741-1.75H6.9c.369.007.722.149.992.4l1.335 1.341 4.03.009c.963.006 1.741.787 1.743 1.75v7c0 .466-.186.912-.515 1.241-.326.327-.769.51-1.23.509zM5.713 7.983c-.421.015-.749.369-.734.789.014.399.335.719.734.734h1.524v1.526c-.015.421.313.774.734.789.421.015.774-.313.789-.734.001-.018.001-.037 0-.055V9.506h1.55c.421 0 .762-.341.762-.762s-.341-.762-.762-.762H8.76V6.459c-.015-.421-.369-.749-.789-.734-.399.015-.72.335-.734.734v1.524H5.713z" fill="#0590CC"/>
</svg>
