<svg xmlns="http://www.w3.org/2000/svg" width="16" height="16" viewBox="0 0 16 16">
  <path d="M13.25 14.125H2.756c-.967-.002-1.751-.783-1.756-1.75v-8.75c.003-.963.78-1.743 1.743-1.75H6.9c.369.007.722.149.993.4l1.336 1.341 4.03.009c.962.008 1.738.788 1.741 1.75v7c.001.965-.781 1.749-1.746 1.75h-.004zm-8.986-7.1c-.615.001-1.114.499-1.117 1.114v2.944c.001.617.5 1.116 1.117 1.117h7.472c.297.002.581-.115.791-.325.209-.211.326-.495.326-.792V8.139c-.002-.616-.501-1.115-1.117-1.117l-7.472.003z" fill="#0590CC"/>
</svg>