<svg xmlns="http://www.w3.org/2000/svg" width="16" height="16" viewBox="0 0 16 16">
  <path d="M13.252 14.125h-10.5c-.965-.005-1.745-.785-1.752-1.75v-8.75c.002-.964.781-1.745 1.745-1.75H6.9c.371.005.728.147 1 .4l1.33 1.336 4.029.009c.964.007 1.742.791 1.741 1.755v7c.002.465-.184.912-.514 1.24-.327.328-.771.511-1.234.51zm-6.776-8.6c-1.158.004-2.096.942-2.1 2.1v2.771c.003 1.158.942 2.097 2.1 2.1h2.77c1.158-.003 2.097-.942 2.1-2.1v-.591c-.001-.357-.29-.646-.647-.647-.357.001-.646.29-.647.647v.591c-.002.445-.362.805-.807.807h-2.77c-.445-.002-.805-.362-.806-.807V7.625c.001-.445.361-.805.806-.806h.581c.357 0 .647-.29.648-.647-.001-.358-.29-.647-.648-.648l-.58.001zM9.07 5.25c-.341.001-.616.276-.617.617.001.341.276.616.617.617h.448L7.459 8.543a.6176.6176 0 0 0-.181.437c-.001.164.065.321.181.436.115.116.272.181.436.181.164 0 .321-.065.436-.181l2.06-2.06v.449c.001.34.276.615.616.616.34-.001.616-.276.617-.616V5.866c-.001-.341-.276-.616-.617-.617L9.07 5.25z" fill="#0590CC"/>
</svg>