<svg xmlns="http://www.w3.org/2000/svg" width="16" height="16" viewBox="0 0 16 16">
  <path d="M11.968 15H4.036c-.469.001-.919-.185-1.249-.518-.332-.332-.517-.783-.514-1.252V2.77c.003-.973.79-1.763 1.763-1.77h4.407v3.525c.003.971.788 1.758 1.759 1.763h3.525v6.949c-.003.971-.788 1.757-1.759 1.763zm-3.63-3.87.428.589c-.153.181-.254.4-.292.634-.114.726.381 1.407 1.106 1.523.07.011.14.016.211.016.655.003 1.213-.475 1.313-1.122.056-.349-.029-.706-.238-.991-.207-.286-.52-.478-.869-.532-.066-.01-.133-.016-.2-.016-.169.001-.337.035-.493.1l-.428-.59c.111-.132.196-.285.248-.45l1.913.216c.098.183.276.31.481.342.035.005.07.008.105.008.328.001.607-.238.656-.562.057-.363-.19-.703-.553-.761-.035-.005-.07-.008-.105-.008-.196 0-.381.086-.508.235l-1.982-.224c-.038-.13-.096-.253-.172-.365l.343-.4h.019l.02.005c.056.009.112.014.169.014.493.003.914-.354.993-.84.045-.264-.017-.535-.173-.752-.155-.218-.39-.366-.654-.409-.056-.009-.112-.014-.169-.014-.493-.003-.914.354-.993.84-.049.289.031.585.218.811l-.277.287c-.184-.1-.39-.152-.6-.152-.168 0-.334.034-.488.1L6.178 7.026c.235-.272.365-.62.365-.98 0-.828-.672-1.5-1.5-1.5s-1.5.672-1.5 1.5.672 1.5 1.5 1.5c.206.001.411-.042.6-.124l1.186 1.632c-.047.056-.09.116-.128.179l-1.686-.469c-.072-.247-.281-.431-.535-.472-.035-.005-.07-.008-.105-.008-.328-.001-.607.238-.656.562-.029.176.014.356.119.5.103.143.26.239.434.266.033.005.067.008.1.008.147 0 .29-.049.406-.139l1.742.485c.012.229.085.451.21.643l-1.113.993a.85442.85442 0 0 0-.215-.068.85363.85363 0 0 0-.143-.012c-.41 0-.761.296-.829.7-.078.458.23.893.688.972h.01c.044.007.088.01.133.01.41.001.761-.295.829-.7.023-.136.013-.275-.03-.406l1.159-1.034c.191.109.407.166.627.166.168-.001.334-.035.488-.1h.004zm5.325-6.605h-3.461V1.064l3.46 3.459.001.002z"/>
</svg>