<svg xmlns="http://www.w3.org/2000/svg" width="16" height="16" viewBox="0 0 16 16">
  <path d="M8.765 14.999c-.619 0-1.12-.501-1.12-1.12-.001-.619.5-1.12 1.119-1.121H12.88c.619 0 1.12.501 1.12 1.12v.001c0 .619-.501 1.12-1.12 1.12H8.765zm-6.965 0c-.442 0-.8-.358-.8-.8v-4c0-.442.358-.8.8-.8h4c.442 0 .8.358.8.8v4c0 .442-.358.8-.8.8h-4zm.419-2.859-.113.113c-.068.068-.106.159-.106.254s.038.187.106.254l1.011 1.012c.068.067.159.105.255.105.115 0 .222-.055.29-.147l1.759-2.4c.116-.159.082-.382-.076-.5l-.129-.1c-.061-.045-.136-.07-.212-.07-.115 0-.223.055-.291.148l-1.4 1.912-.584-.584a.35321.35321 0 0 0-.254-.1c-.096-.001-.188.036-.256.103zm6.546-.5c-.619 0-1.12-.501-1.12-1.12v-.001c-.001-.618.5-1.119 1.118-1.12h5.117c.618-.001 1.119.5 1.12 1.118v.002c.001.619-.5 1.12-1.119 1.121H8.765zm0-5.04c-.618.001-1.119-.5-1.12-1.118V5.48c-.001-.617.499-1.118 1.116-1.12h4.119c.618 0 1.119.501 1.12 1.119-.001.618-.502 1.119-1.12 1.12L8.765 6.6zM1.8 6.6c-.442 0-.8-.358-.8-.8v-4c0-.442.358-.8.8-.8h4c.442 0 .8.358.8.8v4c0 .442-.358.8-.8.8h-4zm.419-2.859-.113.112c-.068.068-.106.16-.106.256 0 .095.039.187.106.254l1.011 1.011c.067.069.159.107.255.106.115 0 .222-.055.29-.147l1.759-2.4c.116-.159.082-.382-.076-.5l-.129-.095c-.061-.045-.136-.07-.212-.07-.115 0-.223.055-.291.147l-1.4 1.913-.584-.584c-.067-.067-.159-.105-.254-.105-.095-.002-.188.035-.256.102zm6.546-.5c-.617.001-1.119-.499-1.12-1.116v-.004c-.001-.618.5-1.119 1.118-1.12h5.117c.618.001 1.118.5 1.12 1.118 0 .619-.501 1.12-1.12 1.12l-5.115.002z"/>
</svg>