<svg xmlns="http://www.w3.org/2000/svg" width="16" height="16" viewBox="0 0 16 16">
  <path d="M3.158 14.997c-.444-.001-.805-.361-.806-.805V3.102c0-.214.085-.42.236-.571.152-.152.357-.237.571-.238h.539c.445.002.805.362.805.807-.001.28.111.548.31.745.198.198.467.308.746.309h4.887c.571-.004 1.037-.461 1.051-1.032v-.021c.001-.445.361-.806.806-.807h.539c.214.001.419.086.571.237.151.152.236.357.236.571v11.09c.001.214-.084.42-.236.571-.152.151-.357.236-.571.237l-9.684-.003zm6.456-4.034h.03a.8085.8085 0 0 0 .692-.4c.151-.254.151-.57 0-.823a.8085.8085 0 0 0-.692-.4H6.357c-.286.001-.549.153-.693.4-.151.254-.151.57 0 .823.144.246.408.398.693.4h3.257zm0-3.229h.03a.8085.8085 0 0 0 .692-.4c.151-.254.151-.57 0-.823a.8085.8085 0 0 0-.692-.4H6.357c-.286.001-.549.153-.693.4-.151.254-.151.57 0 .823.144.246.408.398.693.4h3.257zm0-5.111H6.387c-.296.01-.574-.144-.723-.4-.151-.254-.151-.57 0-.823.149-.256.427-.409.723-.4h3.226c.296-.01.574.144.723.4.151.254.151.57 0 .823-.145.248-.412.401-.699.4h-.023z"/>
</svg>