<svg xmlns="http://www.w3.org/2000/svg" width="16" height="16" viewBox="0 0 16 16">
  <path d="M2.4 14.887c-.773 0-1.4-.627-1.4-1.4v-9.8c.003-.745.589-1.357 1.333-1.393v1.579c0 1.198.971 2.169 2.169 2.169.074 0 .148-.004.222-.012 1.134-.157 1.97-1.139 1.944-2.284v-1.1c.001-.198.161-.358.359-.359h1.946c.198.001.359.161.36.359v1.227c0 1.198.971 2.169 2.169 2.169.074 0 .148-.004.222-.012 1.133-.157 1.968-1.138 1.944-2.281V2.293c.744.037 1.329.649 1.332 1.393v9.8c0 .773-.627 1.4-1.4 1.4H2.4zm.9-6.43v3.319c.003.469.383.849.852.852h7.5c.469-.003.849-.383.852-.852V8.452c-.003-.469-.383-.849-.852-.851h-7.5c-.471.003-.851.385-.852.856zm7.581-4.245c-.165-.165-.258-.39-.258-.624V1.996c0-.487.395-.882.882-.882s.882.395.882.882v1.592c.002.487-.391.882-.878.884-.236 0-.462-.093-.628-.26zm-7 0c-.165-.165-.258-.39-.258-.624V1.996c0-.487.395-.882.882-.882s.882.395.882.882v1.592c.002.486-.391.882-.878.884-.236 0-.462-.093-.628-.26z"/>
</svg>