<svg xmlns="http://www.w3.org/2000/svg" width="16" height="16" viewBox="0 0 16 16">
  <path d="M6.67 13.999c-.946-.025-1.694-.811-1.67-1.758v-.861c.023-.629.386-1.195.947-1.479 2.59-1.102 5.516-1.102 8.106 0 .561.284.923.85.947 1.478v.861c.024.946-.723 1.733-1.669 1.759H6.67zm-4.5-1.938c-.663-.016-1.186-.566-1.17-1.229v-.601c.017-.44.27-.836.663-1.035 1.395-.593 2.94-.733 4.419-.4-.191.068-.382.124-.572.205-.904.454-1.484 1.368-1.51 2.379v.681H2.17zm5.757-5.056c-1.144-1.145-1.144-3.001 0-4.146 1.145-1.145 3.001-1.145 4.146 0s1.145 3 0 4.145c-.549.55-1.295.859-2.072.86-.778 0-1.524-.309-2.074-.859zm-4.878.16c-.801-.801-.801-2.099 0-2.9.801-.801 2.099-.801 2.9 0 .801.801.801 2.099 0 2.9-.384.385-.906.601-1.45.6-.544 0-1.066-.215-1.45-.6z"/>
</svg>