<svg xmlns="http://www.w3.org/2000/svg" width="16" height="16" viewBox="0 0 16 16">
  <path d="M13.5 1.5h-11C1.672 1.5 1 2.172 1 3v10c0 .828.672 1.5 1.5 1.5h11c.828 0 1.5-.672 1.5-1.5V3c-.012-.823-.677-1.488-1.5-1.5zm-6.001 1c.415.001.75.336.751.75-.001.414-.337.75-.751.75-.414-.001-.749-.336-.75-.75.001-.414.336-.749.75-.75zm-2 0c.415.001.75.336.751.75-.001.414-.337.75-.751.75-.414-.001-.749-.336-.75-.75.001-.414.336-.749.75-.75zm-2 0c.415.001.749.336.75.75-.001.414-.336.749-.75.75-.414-.001-.749-.336-.75-.75.001-.414.336-.749.75-.75zm9.757 9.653c0 .331-.269.6-.6.6H3.35c-.331 0-.6-.269-.6-.6V5h10.506v7.153z"/>
  <path d="M6.375 11.877c.136 0 .269-.037.386-.107l3.75-2.25c.355-.213.47-.674.257-1.029-.063-.105-.151-.193-.257-.257l-3.75-2.25c-.355-.214-.815-.099-1.029.256-.07.117-.107.25-.107.386v4.5c0 .415.336.751.75.751z"/>
</svg>