<svg xmlns="http://www.w3.org/2000/svg" width="42" height="48" viewBox="0 0 42 48"><path d="M36.4,10.879,26.111.586A2,2,0,0,0,24.7,0H2A2,2,0,0,0,0,2V46a2,2,0,0,0,2,2H34.99a2,2,0,0,0,2-2V12.293A2,2,0,0,0,36.4,10.879Z" fill="#0590cc"/><rect x="6.5" y="26.5" width="35" height="15" rx="1.5" fill="#fff"/><path d="M40,27a1,1,0,0,1,1,1V40a1,1,0,0,1-1,1H8a1,1,0,0,1-1-1V28a1,1,0,0,1,1-1H40m0-1H8a2,2,0,0,0-2,2V40a2,2,0,0,0,2,2H40a2,2,0,0,0,2-2V28a2,2,0,0,0-2-2Z" fill="#0590cc"/><polygon points="17.593 35.656 15.883 30.07 13.85 30.07 16.542 37.936 18.609 37.936 21.291 30.07 19.291 30.07 17.593 35.656" fill="#0590cc"/><rect x="21.961" y="30.07" width="1.887" height="7.866" fill="#0590cc"/><polygon points="29.489 35.441 27.949 30.07 25.309 30.07 24.881 37.936 26.635 37.936 26.903 32.317 28.567 37.936 30.376 37.936 32.051 32.294 32.31 37.936 34.164 37.936 33.748 30.07 31.039 30.07 29.489 35.441" fill="#0590cc"/><polygon points="18 12.619 10 8 18 21.856 26 8 18 12.619" fill="#fff"/></svg>