<svg xmlns="http://www.w3.org/2000/svg" width="16" height="16" viewBox="0 0 16 16"><path d="M12.492,4.173l-3-3A.583.583,0,0,0,9.079,1H2.458a.583.583,0,0,0-.583.583V14.417A.583.583,0,0,0,2.458,15H12.08a.583.583,0,0,0,.584-.583V4.585A.59.59,0,0,0,12.492,4.173Z" fill="#0590cc"/><rect x="3.771" y="8.729" width="10.208" height="4.375" rx="0.438" fill="#fff"/><path d="M13.542,8.875a.291.291,0,0,1,.291.292v3.5a.291.291,0,0,1-.291.291H4.208a.291.291,0,0,1-.291-.291v-3.5a.291.291,0,0,1,.291-.292h9.334m0-.292H4.208a.584.584,0,0,0-.583.584v3.5a.583.583,0,0,0,.583.583h9.334a.583.583,0,0,0,.583-.583v-3.5A.584.584,0,0,0,13.542,8.583Z" fill="#0590cc"/><polygon points="7.006 11.4 6.508 9.77 5.915 9.77 6.7 12.065 7.303 12.065 8.085 9.77 7.502 9.77 7.006 11.4" fill="#0590cc"/><rect x="8.28" y="9.77" width="0.55" height="2.294" fill="#0590cc"/><polygon points="10.476 11.337 10.027 9.77 9.257 9.77 9.132 12.065 9.644 12.065 9.722 10.426 10.207 12.065 10.735 12.065 11.223 10.419 11.299 12.065 11.84 12.065 11.718 9.77 10.928 9.77 10.476 11.337" fill="#0590cc"/><polygon points="7.125 4.681 4.792 3.333 7.125 7.375 9.458 3.333 7.125 4.681" fill="#fff"/></svg>