<svg xmlns="http://www.w3.org/2000/svg" width="16" height="16" viewBox="0 0 16 16"><path d="M12.492,4.173l-3-3A.583.583,0,0,0,9.079,1H2.458a.583.583,0,0,0-.583.583V14.417A.583.583,0,0,0,2.458,15H12.08a.583.583,0,0,0,.584-.583V4.585A.59.59,0,0,0,12.492,4.173Z" fill="#77c043"/><rect x="3.771" y="8.729" width="10.208" height="4.375" rx="0.438" fill="#fff"/><path d="M13.542,8.875a.291.291,0,0,1,.291.292v3.5a.291.291,0,0,1-.291.291H4.208a.291.291,0,0,1-.291-.291v-3.5a.291.291,0,0,1,.291-.292h9.334m0-.292H4.208a.584.584,0,0,0-.583.584v3.5a.583.583,0,0,0,.583.583h9.334a.583.583,0,0,0,.583-.583v-3.5A.584.584,0,0,0,13.542,8.583Z" fill="#77c043"/><path d="M5.145,12.065v-2.3h.764c.639,0,.98.262.98.8,0,.588-.383.853-.987.853h-.21v.647Zm.751-1.09c.3,0,.442-.132.442-.387s-.131-.368-.433-.368H5.692v.755Z" fill="#77c043"/><path d="M7.631,12.065H7.09v-2.3h.881c.636,0,.928.242.928.685a.7.7,0,0,1-.558.686.667.667,0,0,1,.338.318l.4.607H8.431L8.1,11.524a.388.388,0,0,0-.371-.22h-.1ZM7.9,10.877c.279,0,.439-.128.439-.35,0-.2-.121-.314-.4-.314h-.3v.665Z" fill="#77c043"/><path d="M10.155,12.1A1.052,1.052,0,0,1,9.1,10.92a1.063,1.063,0,1,1,2.112-.007A1.059,1.059,0,0,1,10.155,12.1Zm0-1.9c-.3,0-.5.252-.5.711s.2.719.5.719.492-.253.492-.712-.2-.718-.494-.718Z" fill="#77c043"/><path d="M11.759,12.091a1.836,1.836,0,0,1-.521-.072l.085-.472a1.174,1.174,0,0,0,.348.062c.252,0,.383-.131.383-.417V9.769h.551v1.423C12.605,11.8,12.32,12.091,11.759,12.091Z" fill="#77c043"/><polygon points="7.125 4.692 4.792 3.345 7.125 7.386 9.458 3.345 7.125 4.692" fill="#fff"/></svg>