<svg xmlns="http://www.w3.org/2000/svg" width="42" height="48" viewBox="0 0 42 48"><path d="M36.4,10.879,26.111.586A2,2,0,0,0,24.7,0H2A2,2,0,0,0,0,2V46a2,2,0,0,0,2,2H34.99a2,2,0,0,0,2-2V12.293A2,2,0,0,0,36.4,10.879Z" fill="#77c043"/><rect x="6.5" y="26.5" width="35" height="15" rx="1.5" fill="#fff"/><path d="M40,27a1,1,0,0,1,1,1V40a1,1,0,0,1-1,1H8a1,1,0,0,1-1-1V28a1,1,0,0,1,1-1H40m0-1H8a2,2,0,0,0-2,2V40a2,2,0,0,0,2,2H40a2,2,0,0,0,2-2V28a2,2,0,0,0-2-2Z" fill="#77c043"/><path d="M11.21,37.936V30.064h2.62c2.192,0,3.362.9,3.362,2.732,0,2.014-1.315,2.924-3.384,2.924h-.72v2.216ZM13.785,34.2c1.046,0,1.518-.451,1.518-1.328s-.449-1.259-1.485-1.259h-.73V34.2Z" fill="#77c043"/><path d="M19.736,37.936H17.881V30.064H20.9c2.181,0,3.182.832,3.182,2.351a2.385,2.385,0,0,1-1.912,2.35,2.308,2.308,0,0,1,1.158,1.091l1.361,2.08H22.479l-1.124-1.855a1.333,1.333,0,0,0-1.27-.754h-.349Zm.91-4.071c.957,0,1.507-.439,1.507-1.2,0-.675-.416-1.079-1.371-1.079H19.736v2.282Z" fill="#77c043"/><path d="M28.387,38.071c-2.148,0-3.61-1.54-3.61-4.06s1.462-4.082,3.632-4.082c2.149,0,3.611,1.529,3.611,4.06S30.546,38.071,28.387,38.071Zm.011-6.523c-1.035,0-1.7.867-1.7,2.441s.675,2.463,1.709,2.463,1.687-.867,1.687-2.441S29.41,31.548,28.4,31.548Z" fill="#77c043"/><path d="M33.889,38.026a6.266,6.266,0,0,1-1.788-.247l.293-1.619a3.947,3.947,0,0,0,1.191.213c.866,0,1.316-.45,1.316-1.428V30.064H36.79v4.881C36.79,37.025,35.812,38.026,33.889,38.026Z" fill="#77c043"/><polygon points="18 12.659 10 8.04 18 21.896 26 8.04 18 12.659" fill="#fff"/></svg>