<svg xmlns="http://www.w3.org/2000/svg" width="16" height="16" viewBox="0 0 16 16">
  <path d="M11.967 15H4.035c-.469.001-.919-.186-1.249-.519-.331-.332-.516-.782-.514-1.251V2.77c.003-.973.789-1.763 1.763-1.77h4.407v3.525c.002.973.79 1.761 1.763 1.763h3.524v6.949c-.003.972-.79 1.76-1.762 1.763zM8.75 11.585c-.419.001-.78.296-.864.707-.043.248.027.502.189.694.162.19.4.3.65.3h2.339c.47-.001.85-.381.851-.851-.001-.469-.382-.849-.851-.85H8.75zM4.942 6.038c-.225 0-.441.089-.6.249-.16.159-.25.375-.249.6 0 .225.089.441.249.6L6.346 9.5c.043.043.066.101.066.161.001.06-.023.118-.066.16l-2.009 2.007c-.16.159-.25.375-.25.6 0 .225.09.441.25.6.16.157.375.246.6.248.225 0 .441-.089.6-.248l2.721-2.715c.172-.173.268-.407.269-.651-.002-.244-.098-.477-.269-.651L5.537 6.288c-.158-.159-.373-.249-.595-.25zm8.725-1.513h-3.461V1.064l3.459 3.459.002.002z"/>
</svg>