<svg xmlns="http://www.w3.org/2000/svg" width="16" height="16" viewBox="0 0 16 16">
  <path d="M13.842 13.25H2.154c-.306 0-.599-.12-.816-.336-.217-.216-.339-.508-.34-.814.001-.153.062-.3.17-.408.109-.108.256-.168.409-.168h4.694c.296.031.553.217.675.488.089.177.271.289.469.289H8.58c.198 0 .38-.112.469-.289.122-.271.379-.457.675-.488h4.7c.153 0 .3.06.408.168.109.108.17.255.17.408-.001.306-.123.598-.34.814-.216.215-.508.336-.812.336h-.008zM2.367 10.032v-6.3a.98.98 0 0 1 .289-.695c.186-.185.438-.287.7-.286h9.3c.262-.002.514.101.7.286.185.184.289.434.29.695v6.3H2.367z"/>
</svg>