<svg xmlns="http://www.w3.org/2000/svg" width="16" height="16" viewBox="0 0 16 16">
  <path d="M9.858 14.641 8 9.833l-1.858 4.808c-.101.262-.381.409-.654.343-.272-.066-.453-.322-.425-.6l.788-7.354-4.008-1c-.274-.07-.454-.332-.419-.613.034-.281.273-.491.556-.491h12.041c.283 0 .521.21.556.491.034.281-.146.544-.42.613l-4.007 1 .788 7.354c.028.278-.153.534-.425.6-.044.011-.088.016-.132.016-.232 0-.44-.143-.523-.359zM6.321 2.68c0-.927.751-1.679 1.679-1.68.928 0 1.68.752 1.68 1.68 0 .928-.752 1.68-1.68 1.68-.928-.001-1.679-.753-1.679-1.68z"/>
</svg>