<svg xmlns="http://www.w3.org/2000/svg" width="16" height="16" viewBox="0 0 16 16">
  <path d="M11.179 14.226v-1.415H9.736c-.28-.002-.539-.15-.682-.391a.79158.79158 0 0 1 0-.811c.142-.242.401-.391.682-.391h1.443V9.803c-.009-.291.14-.563.391-.712.123-.072.263-.11.405-.111.142.001.282.039.405.111.25.149.4.421.391.712v1.415h1.415c.432.012.775.368.771.8.004.432-.339.788-.771.8h-1.415v1.415c-.012.432-.368.775-.8.771-.432 0-.785-.346-.792-.778zm-9.643.771c-.295 0-.535-.24-.535-.535V9.497c0-.295.24-.535.535-.535h4.96c.295 0 .535.24.535.535v4.96c0 .295-.24.535-.535.535l-4.96.005zm7.969-7.969c-.295 0-.535-.24-.535-.535V1.532c-.001-.295.238-.535.533-.536h4.961c.296 0 .536.24.536.535v4.961c0 .295-.239.535-.534.536H9.505zm-7.969 0c-.296 0-.535-.24-.536-.535V1.532c0-.295.239-.535.534-.536h4.961c.295 0 .535.24.535.535v4.961c.001.295-.239.535-.534.536h-4.96z"/>
</svg>