<svg xmlns="http://www.w3.org/2000/svg" width="16" height="16" viewBox="0 0 16 16">
  <path d="M3.416 15c-.494 0-.895-.402-.895-.895V9.472c0-.494.402-.895.895-.895h.539c.494 0 .895.402.895.895v3.199h6.299V9.472c0-.494.402-.895.895-.895h.539c.494 0 .895.402.895.895v4.633c0 .494-.402.895-.895.895H3.416zM13.707 8.367c-.201 0-.398-.069-.556-.193L8 3.74 2.86 8.165c-.169.133-.366.202-.567.202-.275 0-.532-.124-.702-.339l-.335-.423c-.148-.188-.215-.422-.187-.659.027-.238.146-.45.333-.599l6.032-5.146C7.602 1.069 7.799 1 8 1c.201 0 .398.069.556.193l6.052 5.162c.178.14.296.353.323.59.028.237-.039.471-.187.659l-.335.423c-.17.216-.427.34-.702.34z"/>
</svg>