<svg xmlns="http://www.w3.org/2000/svg" width="16" height="16" viewBox="0 0 16 16">
  <path d="M8 15c-3.866 0-7-3.134-7-7s3.134-7 7-7 7 3.134 7 7c0 1.857-.737 3.638-2.051 4.951C11.636 14.262 9.857 14.999 8 15zM6.826 7.463c.077 0 .153.019.221.054L8 7.999c.148.075.249.218.27.383l.028.219c.025.198.134.376.3.487l.534.357c.291.196.37.59.176.882-.021.032-.046.062-.072.09l-.765.79c-.089.091-.153.204-.185.327l-.567 2.1c.095 0 .189.007.285.007 2.262-.002 4.311-1.334 5.231-3.4l-.271-.144c-.147-.076-.247-.22-.267-.385l-.093-.782c-.032-.279-.218-.517-.482-.615l-1.2-.448a.50084.50084 0 0 1-.289-.285l-.531-1.354c-.131-.324.026-.693.35-.824.048-.019.099-.033.15-.04l.928-.128c.205-.029.388-.141.509-.309l.428-.6C11.383 2.971 9.738 2.184 8 2.19h-.095l.2 1.088c.051.271-.128.533-.399.584h-.001c-.056.009-.112.009-.168 0-.319-.068-.64.105-.76.408l-.256.711c-.09.25-.359.386-.613.31l-.464-.138a.54338.54338 0 0 0-.4.028c-.379.184-.537.64-.353 1.018.011.022.022.043.035.064l.511.841c.137.223.379.359.641.36h.945l.003-.001zm-4.554.6c.02 2.116 1.207 4.047 3.086 5.02l.062-.506c.028-.233-.031-.468-.165-.661l-.931-1.342c-.162-.231-.132-.545.069-.742.144-.146.144-.38 0-.526-.023-.023-.049-.044-.078-.06L2.272 8.063z"/>
</svg>