<svg xmlns="http://www.w3.org/2000/svg" width="16" height="16" viewBox="0 0 16 16">
  <path d="M13.496 6.5H9.598c-.107-.007-.193-.093-.2-.2V2.5c.059-.768-.516-1.437-1.283-1.496C8.076 1.001 8.037 1 7.999 1c-.813-.015-1.485.632-1.5 1.446v3.955c-.007.107-.093.193-.2.2H2.501c-.736-.089-1.403.436-1.491 1.172-.009.075-.012.151-.008.227.02.82.68 1.48 1.499 1.5h3.898c.107.007.193.093.2.2v3.9c-.02.754.575 1.38 1.328 1.4h.072c.82-.02 1.479-.68 1.499-1.5V9.6c.007-.107.093-.193.2-.2h3.898c.766-.016 1.383-.633 1.399-1.4.062-.766-.508-1.438-1.274-1.5-.075-.006-.15-.006-.225 0z"/>
</svg>