<svg xmlns="http://www.w3.org/2000/svg" width="16" height="16" viewBox="0 0 16 16">
  <path d="M2.446 14.048c-.787-.004-1.429-.635-1.446-1.423.001-.251.07-.498.2-.713l5.53-9.25c.423-.682 1.307-.91 2.008-.518.22.123.405.302.535.518l5.531 9.25c.394.666.174 1.524-.492 1.918-.015.009-.029.017-.044.025-.225.125-.478.191-.735.191H2.446v.002zm5.556-3.477c-.604.001-1.093.49-1.092 1.094.001.604.49 1.093 1.094 1.092.603-.001 1.092-.49 1.092-1.093 0-.604-.49-1.093-1.094-1.093zm0-5.671c-.053 0-.107.004-.16.01-.705.089-1.204.731-1.118 1.436l.458 2.517c.055.452.466.775.919.72.377-.046.674-.343.72-.72l.458-2.517c.006-.053.01-.107.01-.16C9.288 5.475 8.712 4.9 8.002 4.9z"/>
</svg>