<svg xmlns="http://www.w3.org/2000/svg" width="16" height="16" version="1.1" viewBox="0 0 16 16">
  <g id="microphone-off" transform="translate(-505 -95.5)">
    <path class="cls-1" d="M-25,360.5a.876.876,0,0,1,.875-.875.876.876,0,0,1,.875.875A5.256,5.256,0,0,0-18,365.75a5.2,5.2,0,0,0,3.1-1.016l-1.262-1.262A3.493,3.493,0,0,1-18,364a3.519,3.519,0,0,1-3.5-3.5v-2.37l-2.227-2.227a.8.8,0,0,1,0-1.131.8.8,0,0,1,1.131,0l10.889,10.889a.8.8,0,0,1,0,1.131.8.8,0,0,1-1.131,0l-.81-.81A7.017,7.017,0,0,1-18,367.5,7.008,7.008,0,0,1-25,360.5Zm13.2,3.242-1.318-1.319a5.223,5.223,0,0,0,.364-1.923.876.876,0,0,1,.875-.874A.876.876,0,0,1-11,360.5a7.011,7.011,0,0,1-.795,3.242h0ZM-14.538,361l-6.192-6.191A3.486,3.486,0,0,1-18,353.5a3.5,3.5,0,0,1,3.5,3.5v3.5a3.415,3.415,0,0,1-.037.5v0Z" transform="translate(530 -258)"/>
  </g>
</svg>
