<svg xmlns="http://www.w3.org/2000/svg" width="16" height="16" viewBox="0 0 16 16">
  <path d="M2.707 1.293c-.391-.391-1.024-.391-1.414 0-.391.391-.391 1.024 0 1.414L4.5 5.914V8c.005 1.931 1.569 3.495 3.5 3.5.601-.002 1.161-.163 1.654-.432l1.256 1.256c-.835.568-1.823.926-2.91.926-2.899-.001-5.249-2.351-5.25-5.25 0-.483-.392-.875-.875-.875S1 7.517 1 8c0 3.866 3.134 7 7 7 1.572 0 3.018-.525 4.186-1.4l1.107 1.107c.391.391 1.024.391 1.414 0 .391-.391.391-1.024 0-1.414l-12-12zM15 8c-.001-.483-.392-.873-.875-.874-.483.001-.874.391-.875.874 0 .312-.04.615-.092.912l1.431 1.431C14.851 9.61 15 8.823 15 8zM11.5 4.5C11.5 2.567 9.933 1 8 1c-.776 0-1.486.261-2.066.688L11.5 7.254V4.5z"/>
</svg>