<svg xmlns="http://www.w3.org/2000/svg" width="16" height="16" viewBox="0 0 16 16">
  <path d="M8 15c-3.866 0-7-3.134-7-7s3.134-7 7-7 7 3.134 7 7c-.004 3.864-3.136 6.996-7 7zM4.755 7.2c-.293-.001-.575.116-.782.324-.425.429-.43 1.119-.01 1.554l1.935 1.934c.221.221.52.345.832.346.312.001.612-.124.832-.346l4.476-4.474c.437-.427.444-1.127.017-1.564-.427-.437-1.127-.444-1.564-.017l-.017.017-3.633 3.641c-.028.028-.066.044-.106.044-.04 0-.078-.016-.107-.044l-1.1-1.1c-.206-.202-.484-.316-.773-.315z"/>
</svg>