<svg xmlns="http://www.w3.org/2000/svg" width="16" height="16" viewBox="0 0 16 16">
  <path d="M4.034 15c-.469 0-.918-.187-1.249-.52-.332-.331-.518-.781-.514-1.25V2.769C2.273 1.795 3.06 1.005 4.034 1h4.407v3.525c.001.973.79 1.762 1.763 1.763h3.524v2.919H8.501l.488-.487c.369-.369.369-.968 0-1.337-.37-.369-.968-.369-1.338 0l-2.1 2.1c-.369.37-.369.968 0 1.338l2.1 2.1c.369.369.968.37 1.338 0 .369-.369.369-.967 0-1.336l-.488-.487h5.228v2.137c-.001.973-.79 1.762-1.763 1.763L4.034 15zm6.17-10.475V1.064l3.46 3.461h-3.46z"/>
</svg>