<svg xmlns="http://www.w3.org/2000/svg" width="16" height="16" viewBox="0 0 16 16">
  <path d="M5.65 14.999c-.361 0-.654-.291-.656-.652v-.437c0-.362.294-.656.656-.656.362 0 .656-.294.656-.656V9.343c0-.362-.294-.656-.656-.656-.362 0-.655-.293-.656-.655v-.437c0-.362.294-.656.656-.656h3.389c.362 0 .656.294.656.656v5c0 .362.294.656.656.656h.001c.361.001.654.294.654.656v.438c0 .362-.294.656-.656.656l-4.7-.002zm0-11.811C5.65 1.98 6.63 1 7.838 1s2.188.98 2.188 2.188c0 1.208-.98 2.188-2.188 2.188-1.208.001-2.189-.977-2.191-2.185v-.003h.003z"/>
</svg>