<svg xmlns="http://www.w3.org/2000/svg" width="16" height="16" viewBox="0 0 16 16">
  <path d="m12.935 14.525-.707-.707h-5.55c-.946-.026-1.692-.812-1.67-1.758v-.861c.022-.629.385-1.196.947-1.479.53-.224 1.076-.405 1.635-.539L5.647 7.238c-.337.225-.734.346-1.14.347-.545.002-1.067-.214-1.452-.6-.385-.384-.601-.907-.6-1.451-.001-.407.12-.805.347-1.143l-1.5-1.5c-.39-.391-.39-1.023 0-1.414.39-.39 1.024-.39 1.414 0L14.349 13.11c.39.391.39 1.023 0 1.414-.188.187-.443.292-.708.292-.264 0-.518-.105-.706-.291zm-8.927-2.64H2.177c-.663-.017-1.186-.568-1.169-1.23v-.604c.016-.44.27-.836.663-1.035.892-.379 1.852-.575 2.822-.574.538 0 1.075.059 1.6.177l-.191.066c-.125.042-.255.086-.382.139-.905.45-1.487 1.365-1.512 2.376v.685zm10.98-.868-1.524-1.525c.212.076.413.154.6.232.503.252.85.735.928 1.292l-.004.001zm-3.65-3.651L7.395 3.422c.14-.273.321-.522.537-.739.549-.554 1.296-.865 2.076-.864.777-.002 1.523.306 2.071.857.552.548.861 1.294.86 2.072.003.778-.306 1.525-.858 2.074-.217.218-.468.4-.742.54l-.001.004z"/>
</svg>