<?xml version="1.0" encoding="utf-8"?>
<!-- Generator: Adobe Illustrator 26.0.1, SVG Export Plug-In . SVG Version: 6.00 Build 0)  -->
<svg version="1.1" xmlns="http://www.w3.org/2000/svg" xmlns:xlink="http://www.w3.org/1999/xlink" x="0px" y="0px" width="16px"
	 height="16px" viewBox="0 0 16 16" enable-background="new 0 0 16 16" xml:space="preserve">
<g id="General">
</g>
<g id="Icons">
	<path id="export_00000102540629056992643620000003113453157583814022_" d="M7.186,14.657l-2.727-2.716
		c-0.457-0.456-0.458-1.195-0.002-1.652c0.456-0.457,1.195-0.458,1.652-0.002l0.723,0.717l0-5.294
		C6.85,5.064,7.389,4.557,8.034,4.575C8.653,4.593,9.15,5.091,9.169,5.71l0,5.263l0.714-0.749c0.451-0.462,1.19-0.471,1.652-0.02
		c0.462,0.451,0.471,1.19,0.02,1.652l-2.707,2.79C8.63,14.87,8.332,14.997,8.02,14.999H8.011
		C7.701,14.999,7.405,14.876,7.186,14.657z M13.713,3.575H2.287C1.576,3.575,1,2.999,1,2.288v0c0-0.711,0.576-1.287,1.287-1.287
		h11.426C14.424,1.001,15,1.577,15,2.288v0C15,2.999,14.424,3.575,13.713,3.575z"/>
</g>
</svg>
