<svg xmlns="http://www.w3.org/2000/svg" width="16" height="16" viewBox="0 0 16 16">
  <path d="M10.487 14.999H5.505c-.262.001-.514-.103-.7-.288L1.284 11.19c-.185-.186-.288-.437-.288-.7V5.51c-.001-.262.103-.514.288-.7l3.522-3.522c.186-.184.437-.288.699-.287h4.981c.262 0 .513.103.7.288l3.522 3.522c.185.186.289.437.288.7v4.98c0 .262-.103.514-.288.7l-3.522 3.522c-.186.184-.437.287-.699.286zM7.996 9.676c-.603.001-1.091.49-1.091 1.093.004.601.49 1.088 1.091 1.092.602-.004 1.089-.491 1.092-1.093-.003-.602-.49-1.089-1.092-1.092zm0-5.67h-.019c-.047 0-.094.003-.141.009-.703.089-1.202.73-1.116 1.434l.458 2.516c.05.413.401.724.818.725.033 0 .067-.002.1-.005.377-.045.674-.342.72-.72l.458-2.516c.007-.053.01-.106.01-.16-.006-.708-.58-1.281-1.288-1.283z"/>
</svg>