<svg xmlns="http://www.w3.org/2000/svg" width="16" height="16" viewBox="0 0 16 16">
  <path d="M10.348 14.999c-.296 0-.535-.239-.536-.535v-.981c0-.296.24-.536.536-.537h2.4c.102-.001.185-.083.186-.186v-2.413c0-.142.057-.279.158-.379.1-.101.237-.158.379-.157h.988c.143-.002.281.054.383.155.101.101.158.238.158.381V14.6c0 .221-.179.4-.4.4l-4.252-.001zm-8.948 0c-.221 0-.4-.179-.4-.4v-4.253c0-.142.056-.279.157-.379.1-.101.237-.158.379-.158h.981c.296 0 .536.24.537.536v2.4c.001.102.083.185.186.186h2.413c.142 0 .279.056.379.157.101.1.157.237.157.379v.988c.001.143-.054.281-.155.383-.101.101-.238.158-.381.158l-4.253.003zm1.124-8.81h-.987c-.142 0-.278-.057-.379-.157-.101-.101-.158-.237-.157-.379V1.4c0-.221.179-.4.399-.4h4.252c.296 0 .535.239.536.535v.981c0 .296-.24.536-.536.537H3.246c-.102 0-.185.083-.185.185V5.652c0 .142-.057.279-.158.379-.1.1-.235.156-.376.157l-.003.001zm10.959 0c-.296 0-.536-.24-.537-.536V3.247c0-.102-.083-.185-.185-.185H10.347c-.296 0-.536-.24-.536-.536v-.988c-.001-.142.056-.279.157-.379.101-.101.237-.157.379-.157H14.6c.221 0 .4.179.4.4v4.253c0 .142-.057.278-.158.379-.1.101-.237.157-.379.157l-.98-.002z"/>
</svg>