<svg xmlns="http://www.w3.org/2000/svg" width="16" height="16" viewBox="0 0 16 16">
  <path d="M8.555 14.518c-.67-.006-1.335-.116-1.971-.326-.616-.202-1.197-.496-1.724-.872-.285-.203-.554-.427-.807-.669-.251-.254-.484-.525-.696-.813-.144-.234-.184-.518-.111-.783.068-.254.233-.471.46-.604.154-.094.332-.142.513-.139.089-.001.178.01.264.033.129.03.247.092.346.18.102.068.187.158.248.264.233.283.494.541.778.773.317.235.659.435 1.02.596.375.147.764.253 1.162.315.392.042.787.042 1.179 0 .394-.06.779-.163 1.15-.308.365-.163.711-.366 1.032-.604.291-.236.556-.501.792-.791.237-.319.438-.663.601-1.026.144-.371.247-.757.308-1.151.043-.396.043-.795 0-1.191-.06-.392-.163-.775-.308-1.144-.163-.365-.366-.711-.604-1.032-.236-.291-.502-.556-.792-.792-.319-.237-.663-.438-1.026-.601-.371-.147-.757-.251-1.151-.311-.394-.042-.791-.042-1.185 0-.393.06-.779.164-1.15.308-.363.161-.707.361-1.026.597-.294.239-.562.507-.801.8-.228.307-.422.636-.581.982l.898-.501c.206-.113.448-.145.677-.088.221.062.41.207.526.404.117.206.149.45.087.678-.063.22-.207.408-.404.525l-.342.19-1.482.827-.93.519c-.207.114-.449.145-.677.088a.89218.89218 0 0 1-.527-.405c-.064-.113-.127-.226-.19-.34l-.827-1.483-.519-.931a.93811.93811 0 0 1-.087-.677c.062-.22.207-.409.404-.525.205-.118.449-.15.677-.089.22.063.409.208.526.404.065.115.127.227.19.342l.155.275c.015-.032.03-.065.045-.103.235-.526.54-1.019.907-1.463.362-.443.782-.836 1.249-1.168.47-.337.983-.609 1.525-.81.713-.272 1.472-.408 2.235-.403.439.001.876.042 1.307.123 1.146.227 2.209.759 3.078 1.539.864.771 1.506 1.758 1.861 2.86.182.57.286 1.162.308 1.76.023.608-.039 1.216-.184 1.807-.281 1.128-.856 2.161-1.666 2.993-.813.828-1.83 1.427-2.948 1.737-.32.083-.645.143-.973.181-.251.033-.505.05-.758.05l-.061-.007zm1.464-3.889-.013-.013c-.245-.24-.486-.485-.728-.728L8.263 8.874c-.081-.082-.166-.164-.247-.247-.168-.174-.264-.405-.268-.646V5.55c.004-.231.097-.451.26-.616.165-.164.388-.257.621-.258.231.004.452.096.616.258.163.166.256.389.259.622v2.082l1.074 1.074.679.679c.161.168.253.39.258.622 0 .233-.093.457-.258.622-.166.164-.389.256-.622.258-.234-.004-.456-.099-.622-.264h.006z"/>
</svg>