<svg xmlns="http://www.w3.org/2000/svg" width="16" height="16" viewBox="0 0 16 16">
  <path d="M1.821 11.28C.605 8.997.749 6.229 2.194 4.084c.374-.517 1.095-.634 1.612-.261.055.04.106.084.153.133.394.406.446 1.034.125 1.499-1.401 2.161-.784 5.049 1.377 6.45s5.049.784 6.45-1.377c1-1.543 1-3.53 0-5.073-.321-.466-.269-1.093.124-1.499.444-.457 1.175-.468 1.632-.024.048.047.092.098.132.152 2.164 3.202 1.323 7.551-1.879 9.715s-7.551 1.323-9.715-1.879c-.139-.206-.268-.42-.384-.64zm5.352-3.628c-.219-.219-.341-.515-.341-.825V2.165C6.832 1.522 7.354 1 7.998 1s1.165.522 1.165 1.165v4.662c.001.644-.521 1.166-1.164 1.166-.31.001-.607-.122-.826-.341z"/>
</svg>