<svg xmlns="http://www.w3.org/2000/svg" width="16" height="16" viewBox="0 0 16 16">
  <path d="M13.987 14.142H2.01c-.557 0-1.009-.451-1.01-1.008V12.726c.008-.553.457-.997 1.01-1h11.977c.554 0 1.005.446 1.012 1v.407c-.002.556-.453 1.006-1.009 1.007l-.003.002zM2.01 9.205c-.558 0-1.009-.452-1.01-1.01v-.408c.008-.553.457-.997 1.01-1h11.98c.555.003 1.006.451 1.01 1.006v.408c-.006.554-.456.999-1.01 1l-11.98.004zm0-4.928c-.557 0-1.009-.452-1.01-1.009v-.41c.008-.553.457-.998 1.01-1h11.98c.553.003 1.002.447 1.01 1v.408c-.001.557-.453 1.009-1.01 1.009l-11.98.002z"/>
</svg>