<svg xmlns="http://www.w3.org/2000/svg" width="16" height="16" viewBox="0 0 16 16">
  <path d="M9.228 14.71c-.718-.019-1.284-.615-1.266-1.333v-.653c.018-.476.293-.906.718-1.121a7.8527 7.8527 0 0 1 6.146 0c.426.215.701.645.718 1.121v.653c.018.717-.548 1.314-1.265 1.333H9.228zm-3.413-1.471c-.502-.014-.898-.43-.886-.932v-.454c.012-.333.204-.632.5-.784 1.058-.449 2.229-.553 3.35-.3-.145.052-.29.093-.434.155-.684.343-1.124 1.035-1.144 1.8v.517l-1.386-.002zm-4.806-.664c-.191-.188-.299-.445-.3-.714v-.4c0-.558.453-1.011 1.011-1.011h2.317c-.319.399-.502.89-.523 1.4v.419c-.001.202.023.404.074.6H1.722c-.268.002-.525-.104-.714-.294h.001zm9.168-3.166c-.868-.867-.869-2.274-.002-3.142l.002-.002c.868-.868 2.274-.868 3.142-.001l.001.001c.867.868.867 2.275 0 3.143-.416.417-.981.651-1.57.652-.59-.001-1.155-.236-1.572-.652l-.001.001zm-3.7.121c-.607-.606-.608-1.59-.002-2.198.001 0 .002-.001.002-.002.607-.608 1.592-.608 2.199-.001l.001.001c.608.606.609 1.59.003 2.198-.001 0-.002.001-.003.002-.292.291-.688.454-1.1.453H7.57c-.409-.002-.8-.165-1.09-.454l-.003.001zM1.72 8.295C1.163 8.294.711 7.842.71 7.285v-.41c.008-.553.457-.997 1.01-1h4.361c-.218.125-.419.278-.6.453-.522.525-.828 1.227-.856 1.967H1.72zm-.715-4.883c-.191-.189-.299-.446-.3-.715V2.29c.009-.553.457-.997 1.01-1h10.982c.553.003 1.001.447 1.01 1v.409c-.002.557-.453 1.008-1.01 1.009l-10.976.005c-.268-.001-.525-.11-.713-.301h-.003z"/>
</svg>