<svg xmlns="http://www.w3.org/2000/svg" width="16" height="16" viewBox="0 0 16 16">
  <path d="M13.25 9.751c-.966 0-1.75-.783-1.75-1.75s.783-1.75 1.75-1.75S15 7.035 15 8.001c.004.962-.772 1.745-1.734 1.75h-.016zm-5.249 0c-.464-.001-.909-.185-1.238-.512-.684-.683-.684-1.791-.001-2.475s1.791-.684 2.474-.001c.684.683.685 1.791.002 2.475-.328.328-.773.512-1.237.513zm-5.25 0c-.463-.002-.908-.185-1.237-.512-.685-.683-.685-1.792-.002-2.476s1.792-.685 2.476-.002.685 1.792.002 2.476c-.329.329-.774.514-1.239.514z" fill="white"/>
</svg>