<svg xmlns="http://www.w3.org/2000/svg" width="16" height="16" viewBox="0 0 16 16">
  <path d="M10.602 14.105v-1.647H8.924c-.328 0-.632-.172-.8-.454a.92157.92157 0 0 1 0-.943c.168-.282.472-.455.8-.455h1.678V8.959c-.011-.338.164-.655.455-.827.142-.085.305-.13.471-.13.166 0 .329.045.472.13.291.172.466.489.455.827v1.647h1.647c.502.013.902.424.9.926.002.502-.398.913-.9.926h-1.647v1.647c-.012.502-.423.902-.925.9-.503.003-.916-.397-.928-.9zm-8.905-2.281c-.433-.244-.7-.703-.7-1.2v-8.25c-.001-.497.267-.956.7-1.2.431-.245.96-.238 1.385.018l6.875 4.123c.418.25.673.703.67 1.19 0 .482-.254.929-.667 1.178L3.085 11.81c-.213.13-.458.199-.708.2-.237-.002-.47-.065-.675-.183l-.005-.003z"/>
</svg>