<svg xmlns="http://www.w3.org/2000/svg" width="16" height="16" viewBox="0 0 16 16">
  <path d="M5.056 14.999C2.816 14.996 1 13.18.998 10.94V5.59C1 3.35 2.816 1.534 5.056 1.532h1.123c.69 0 1.25.56 1.25 1.25s-.56 1.25-1.25 1.25H5.056c-.859.002-1.556.698-1.558 1.557v5.35c0 .861.697 1.559 1.558 1.56h5.35c.86-.001 1.557-.699 1.558-1.559V9.799c.001-.69.56-1.249 1.25-1.25.69.001 1.249.56 1.25 1.25v1.141c-.002 2.24-1.818 4.056-4.058 4.059h-5.35zm.538-4.536c-.233-.232-.331-.567-.26-.888l.7-3.2 5.029-5.087c.181-.182.427-.285.684-.287.258-.001.505.1.686.282l2.288 2.289c.373.377.373.985 0 1.362l-5.036 5.095-3.2.7c-.068.015-.137.023-.206.023-.257-.002-.502-.106-.681-.29h-.004zm.785-1.646.86.859 2.015-.436-2.436-2.436-.439 2.013z"/>
</svg>