<svg xmlns="http://www.w3.org/2000/svg" width="16" height="16" viewBox="0 0 16 16">
  <path d="m13.293 14.707-1.645-1.645c.04.106.062.219.067.332 0 .611-.495 1.106-1.106 1.106H5.39c-.611.001-1.107-.494-1.107-1.105 0-.612.496-1.108 1.107-1.108h5.217c.113.005.224.027.33.067l-1.1-1.1h-7.01c-.588 0-1.106-.386-1.273-.949-.036-.123-.055-.251-.055-.379v-7.01l-.208-.209c-.39-.391-.39-1.024 0-1.414.391-.39 1.024-.39 1.414 0l12.004 12.004c.39.391.39 1.024 0 1.414-.189.187-.444.291-.709.289-.265 0-.52-.105-.707-.293zM4.151 8.593h3.027L4.151 5.565v3.028zm7.693-1V4.148H8.398L5.742 1.496h7.429c.707 0 1.291.552 1.328 1.258v7.165c-.008.095-.028.188-.057.278l-2.598-2.604z"/>
</svg>