<svg xmlns="http://www.w3.org/2000/svg" width="16" height="16" viewBox="0 0 16 16">
  <path d="M13.222 14.958c-.236 0-.464-.09-.635-.253l-3.344-3.177c-2.709 1.47-6.097.464-7.567-2.245s-.464-6.097 2.245-7.566C6.094.538 8.783.93 10.53 2.678c1.745 1.746 2.135 4.432.957 6.602l3.245 3.251c.356.36.356.94 0 1.3l-.858.858c-.173.174-.407.271-.652.269zM6.586 3.39c-1.786 0-3.234 1.449-3.233 3.235 0 1.786 1.449 3.234 3.235 3.233 1.786 0 3.234-1.449 3.233-3.235 0-.857-.341-1.68-.947-2.286-.606-.609-1.43-.95-2.288-.947z"/>
</svg>