<svg xmlns="http://www.w3.org/2000/svg" width="16" height="16" viewBox="0 0 16 16">
  <path d="M11.5 15c-1.447-.004-2.619-1.176-2.623-2.624 0-.286.047-.569.14-.84L6.348 9.862c-.49.488-1.153.761-1.845.762-1.447-.004-2.62-1.175-2.626-2.623.004-1.447 1.176-2.62 2.624-2.624.693 0 1.358.275 1.849.766l2.669-1.668c-.095-.273-.144-.561-.144-.851.004-1.448 1.176-2.62 2.624-2.624 1.447.004 2.619 1.176 2.624 2.624-.004 1.448-1.176 2.62-2.624 2.625-.686.001-1.344-.267-1.835-.747L6.988 7.173c.09.268.137.55.137.833 0 .284-.047.566-.139.835l2.672 1.677c.489-.486 1.15-.759 1.84-.76 1.447.005 2.62 1.177 2.625 2.625-.009 1.444-1.179 2.612-2.623 2.617z"/>
</svg>