<svg xmlns="http://www.w3.org/2000/svg" width="16" height="16" viewBox="0 0 16 16">
  <path d="m14.707 13.293-12-12c-.391-.391-1.024-.391-1.414 0s-.391 1.024 0 1.414l2.506 2.506c-1.097.07-1.967.973-1.967 2.087v1.4c0 1.16.94 2.1 2.1 2.1h.182c.664-.001 1.322.113 1.947.337l3.917 3.357c.381.326.866.506 1.367.506.611 0 1.103-.423 1.255-.986l.693.693c.391.391 1.024.391 1.414 0 .391-.39.391-1.024 0-1.414zM12.668 2.323c0-.731-.592-1.323-1.323-1.323-.501 0-.986.18-1.367.506l-2.276 1.95 4.966 4.966V2.323z"/>
</svg>