<svg xmlns="http://www.w3.org/2000/svg" width="16" height="16" viewBox="0 0 16 16">
  <path d="m8.829 1.694 1.753 3.697 3.589.381c.505.049.874.498.825 1.003-.024.246-.146.472-.339.627l-2.866 2.353.885 3.956c.111.495-.2.986-.694 1.097-.232.052-.475.012-.679-.111l-3.309-2.013-3.308 2.012c-.434.263-.999.125-1.263-.309-.123-.203-.163-.446-.111-.677l.885-3.955L1.34 7.402c-.394-.32-.454-.898-.135-1.292.155-.19.379-.311.622-.335l3.588-.381 1.753-3.7c.218-.459.766-.654 1.225-.436.191.091.345.245.436.436z" fill="#FC0"/>
</svg>