<svg xmlns="http://www.w3.org/2000/svg" width="16" height="16" viewBox="0 0 16 16">
  <path d="M10.206 15.002H2.578c-.225.001-.44-.088-.6-.246-.16-.159-.25-.375-.249-.6V5.065c-.001-.225.089-.441.249-.6.16-.158.375-.247.6-.246h4.151c-.007.324.076.644.241.924.318.53.89.855 1.509.857h.853v.841c.018.941.784 1.695 1.725 1.7v5.614c.001.225-.088.441-.247.6-.159.159-.375.248-.6.247h-.004zM4.25 11.573c.001.465.378.842.843.843h2.6c.466 0 .843-.377.843-.843-.001-.465-.378-.841-.843-.842h-2.6c-.466 0-.843.377-.843.842v.003-.003zm0-3.158c0 .465.377.842.843.843h2.6c.466 0 .843-.377.843-.843-.002-.465-.379-.841-.843-.842h-2.6c-.466 0-.843.377-.843.842v.003-.003zm5.976-1.807V5.094H8.684c-.302 0-.581-.159-.735-.418a.84574.84574 0 0 1 0-.866c.154-.259.433-.418.735-.418h1.545V1.879c-.01-.311.15-.602.418-.76.131-.079.28-.121.433-.121.153.001.303.042.434.121.268.158.428.449.418.76v1.513h1.513c.461.012.828.39.827.851.001.461-.366.839-.827.851h-1.516v1.514c-.011.461-.39.828-.851.826h-.007c-.457-.003-.83-.367-.842-.824l-.003-.002z"/>
</svg>