<svg xmlns="http://www.w3.org/2000/svg" width="16" height="16" viewBox="0 0 16 16" xml:space="preserve">
  <path d="M9.9 15c-.276 0-.5-.224-.5-.5V9.9c0-.276.224-.5.5-.5h4.6c.276 0 .5.224.5.5v4.6c0 .276-.224.5-.5.5H9.9zm-8.4 0c-.276 0-.5-.224-.5-.5V9.9c0-.276.224-.5.5-.5h4.6c.276 0 .5.224.5.5v4.6c0 .276-.224.5-.5.5H1.5zm8.4-8.4c-.276 0-.5-.224-.5-.5V1.5c0-.276.224-.5.5-.5h4.6c.276 0 .5.224.5.5v4.6c0 .276-.224.5-.5.5H9.9zm-8.4 0c-.276 0-.5-.224-.5-.5V1.5c0-.276.224-.5.5-.5h4.6c.276 0 .5.224.5.5v4.6c0 .276-.224.5-.5.5H1.5z"/>
</svg>