<svg xmlns="http://www.w3.org/2000/svg" width="16" height="16" viewBox="0 0 16 16">
  <path d="M7.996 14.996C4.136 15 1.004 11.874 1 8.015c-.002-1.854.733-3.633 2.043-4.945C5.765.329 10.194.314 12.935 3.036s2.756 7.151.034 9.892c-1.308 1.324-3.092 2.069-4.954 2.068h-.019zM9.235 3.169c-.453 0-.819.367-.82.819 0 .014 0 .029.001.043l-.021 7.901c-.025.447.317.829.764.855.056.003.112 0 .168-.008 2.294-.462 3.951-2.468 3.97-4.808.003-2.336-1.651-4.346-3.944-4.792-.039-.007-.079-.01-.118-.01z"/>
</svg>