<?xml version="1.0" encoding="utf-8"?>
<!-- Generator: Adobe Illustrator 26.0.1, SVG Export Plug-In . SVG Version: 6.00 Build 0)  -->
<svg version="1.1" xmlns="http://www.w3.org/2000/svg" xmlns:xlink="http://www.w3.org/1999/xlink" x="0px" y="0px" width="16px"
	 height="16px" viewBox="0 0 16 16" enable-background="new 0 0 16 16" xml:space="preserve">
<g id="General">
</g>
<g id="Icons">
	<g>
		<path d="M6.117,5.776l0.714-0.749l0,5.263c0.018,0.619,0.516,1.116,1.134,1.134c0.645,0.019,1.184-0.489,1.203-1.134l0-5.294
			l0.723,0.717c0.457,0.456,1.196,0.455,1.652-0.002c0.456-0.457,0.455-1.196-0.002-1.652L8.814,1.343
			C8.595,1.124,8.299,1.001,7.989,1.001H7.98C7.668,1.003,7.37,1.13,7.152,1.354l-2.707,2.79c-0.451,0.462-0.442,1.201,0.02,1.652
			C4.927,6.247,5.667,6.238,6.117,5.776z"/>
		<path d="M13.713,14.999H2.287C1.576,14.999,1,14.423,1,13.712v0c0-0.711,0.576-1.287,1.287-1.287h11.426
			c0.711,0,1.287,0.576,1.287,1.287v0C15,14.423,14.424,14.999,13.713,14.999z"/>
	</g>
</g>
</svg>
