<svg xmlns="http://www.w3.org/2000/svg" width="16" height="16" viewBox="0 0 16 16">
  <path d="M6.832 7.84c.907-.001 1.776-.362 2.417-1.004C10.584 5.5 10.582 3.334 9.245 2 7.909.665 5.743.667 4.409 2.004 3.074 3.34 3.076 5.506 4.413 6.84c.642.641 1.512 1.001 2.419 1zM12.151 14l-.152-.019c-2.126-.435-3.598-2.29-3.54-4.418v-.184c-2.136-.292-4.324-.021-6.356.84-.643.314-1.069.978-1.105 1.724v1.006c.001 1.134.873 2.052 1.948 2.05h7.772c.71 0 1.325-.405 1.665-1.005l-.152.006h-.08z"/>
  <path d="m14.695 8.076-2.308-1.047a.46337.46337 0 0 0-.32 0L9.759 8.076c-.181.068-.3.24-.3.433v1.082c-.045 1.639 1.094 3.074 2.7 3.403.048.008.097.008.146 0 1.605-.33 2.742-1.765 2.696-3.403V8.51c-.001-.195-.123-.368-.306-.434z"/>
</svg>