<svg xmlns="http://www.w3.org/2000/svg" width="16" height="16" viewBox="0 0 16 16">
  <path d="M8 15c-1.112-.002-2.102-.702-2.474-1.75h-.151c-1.449-.002-2.623-1.177-2.624-2.626v-.149C1.703 10.103 1.002 9.112 1 8c.001-1.112.702-2.103 1.75-2.475v-.15c.002-1.449 1.175-2.623 2.624-2.625h.151C5.897 1.702 6.888 1.001 8 1c1.112.002 2.102.702 2.474 1.75h.151c1.449.002 2.622 1.176 2.624 2.625 0 .05 0 .1-.008.15C14.292 5.894 14.997 6.886 15 8c-.002 1.112-.703 2.103-1.751 2.474v.149c-.001 1.449-1.175 2.624-2.624 2.626l-.151-.008C10.106 14.292 9.114 14.997 8 15zm-2.1-4.3c.586.553 1.363.861 2.169.859.805.001 1.58-.306 2.167-.858.424-.393.728-.898.879-1.456.017-.069.002-.142-.04-.2-.041-.056-.104-.093-.174-.1l-.824-.1h-.025c-.112 0-.21.074-.241.181-.098.29-.275.547-.512.741-.312.283-.717.439-1.138.439-.469.002-.917-.191-1.237-.534l.622-.624c.051-.053.069-.13.046-.2-.024-.07-.086-.121-.16-.13l-2.55-.319h-.034c-.07 0-.138.027-.188.077-.058.058-.087.139-.078.221l.3 2.569c.009.074.06.137.131.161.021.007.042.011.064.011.052 0 .102-.021.138-.058l.683-.682.002.002zm1.936-4.786c.468-.002.916.191 1.237.533l-.622.621c-.053.052-.071.13-.046.2.025.07.087.12.16.13l2.55.318c.011.001.022.001.033 0 .071 0 .14-.028.19-.079.058-.059.087-.141.077-.223l-.3-2.565c-.01-.074-.06-.136-.13-.162-.021-.007-.042-.011-.064-.011-.052 0-.103.021-.139.058l-.684.683c-.586-.554-1.363-.862-2.169-.86-.805-.001-1.58.306-2.167.858-.424.393-.728.898-.879 1.456-.017.069-.003.142.039.2.041.057.104.093.174.1l.825.1h.024c.112-.001.21-.074.242-.181.097-.29.274-.546.511-.739.313-.281.719-.436 1.139-.435l-.001-.002z" fill="#0590CC"/>
</svg>