<svg xmlns="http://www.w3.org/2000/svg" width="16" height="16" viewBox="0 0 16 16">
  <path d="M8 15c-1.112-.002-2.102-.702-2.474-1.75h-.151c-1.449-.002-2.623-1.177-2.624-2.626v-.149C1.703 10.103 1.002 9.112 1 8c.001-1.112.702-2.103 1.75-2.475v-.15c.002-1.449 1.175-2.623 2.624-2.625h.151C5.897 1.702 6.888 1.001 8 1c1.112.002 2.102.702 2.474 1.75h.151c1.449.002 2.622 1.176 2.624 2.625 0 .05 0 .1-.008.15C14.292 5.894 14.997 6.886 15 8c-.002 1.112-.703 2.103-1.751 2.474v.149c-.001 1.449-1.175 2.624-2.624 2.626l-.151-.008C10.106 14.292 9.114 14.997 8 15zM4.745 7.561c-.294 0-.575.116-.783.323-.425.429-.43 1.119-.01 1.554l1.935 1.935c.221.221.52.345.832.346.313.001.612-.124.832-.346l4.476-4.475c.286-.278.4-.687.3-1.073-.101-.385-.402-.686-.787-.788-.092-.024-.187-.037-.282-.037-.298.001-.583.121-.792.334l-3.633 3.64c-.028.028-.066.044-.106.044-.04 0-.078-.016-.107-.044l-1.1-1.1c-.207-.203-.485-.315-.775-.314v.001z" fill="#AAA"/>
</svg>