<svg xmlns="http://www.w3.org/2000/svg" width="16" height="16" viewBox="0 0 16 16">
  <path d="M2.659 1.706c-.38-.38-.995-.38-1.375 0s-.38.995 0 1.375l.457.457c-.279.223-.471.548-.471.936v7.222c0 .689.559 1.248 1.248 1.248h7.489c.319 0 .596-.13.812-.329l1.678 1.678c.38.38.995.38 1.375 0s.38-.995 0-1.375L2.659 1.706zM14.787 4.668c-.224-.189-.549-.199-.785-.024l-2.247 1.919c-.054.041-.12.063-.188.062-.172 0-.311-.14-.311-.313V4.474c0-.689-.559-1.248-1.248-1.248h-3.04l7.993 7.993c.02-.061.039-.124.039-.192V5.159c.006-.188-.072-.368-.213-.491z"/>
</svg>