<svg xmlns="http://www.w3.org/2000/svg" width="16" height="16" viewBox="0 0 16 16">
  <path d="M9.909 12.955H2.273c-.703-.001-1.272-.57-1.273-1.273V4.318c.001-.703.571-1.272 1.274-1.273H9.91c.703.001 1.273.57 1.274 1.273v1.875c0 .12.068.231.175.285.044.022.093.034.142.034.069 0 .136-.022.191-.063l2.291-1.957c.111-.083.246-.127.384-.127.152 0 .3.054.416.152.144.126.223.309.217.5v5.984c.001.242-.135.463-.352.57-.088.044-.185.067-.284.067-.138 0-.272-.045-.382-.128l-2.291-1.957a.31862.31862 0 0 0-.19-.063c-.05 0-.099.012-.143.034-.107.054-.175.164-.175.284v1.875c-.002.703-.572 1.271-1.274 1.272zm-5.4-4.208h3.235l-.384.383c-.291.292-.291.764 0 1.056.14.141.33.219.528.219s.388-.079.527-.219l1.658-1.658c.141-.14.219-.33.219-.528.001-.199-.078-.389-.219-.529L8.416 5.814c-.14-.141-.33-.22-.529-.219-.198-.001-.388.078-.527.218-.292.292-.292.765 0 1.057l.382.383H4.507l.383-.384c.14-.14.219-.33.219-.528.001-.198-.078-.388-.218-.528-.14-.141-.331-.22-.529-.219a.73485.73485 0 0 0-.527.219L2.176 7.472c-.141.14-.22.33-.219.528 0 .198.079.388.219.528l1.657 1.657c.14.141.33.22.529.219.198.001.388-.078.527-.218.141-.14.219-.33.219-.528s-.078-.388-.219-.528l-.381-.381.001-.002z"/>
</svg>