<svg xmlns="http://www.w3.org/2000/svg" width="16" height="16" viewBox="0 0 16 16">
  <path d="m14.707 13.293-12-12c-.391-.391-1.024-.391-1.414 0-.391.391-.391 1.024 0 1.414l2.7 2.7c-.076-.008-.15-.03-.228-.03-1.447.004-2.62 1.176-2.624 2.624.005 1.447 1.178 2.619 2.626 2.623.691 0 1.354-.274 1.845-.762l2.669 1.675c-.093.27-.14.554-.14.84.003 1.447 1.175 2.62 2.623 2.624.774-.003 1.453-.356 1.932-.891l.598.598c.391.391 1.024.391 1.414 0 .39-.391.39-1.025-.001-1.415zM3.764 9.197c-.661-.004-1.195-.539-1.2-1.2.004-.661.539-1.195 1.2-1.2l-.001.004c.662.001 1.2.534 1.207 1.196-.005.663-.543 1.199-1.206 1.2zm2.485-.356c.092-.269.139-.551.139-.835 0-.08-.023-.156-.032-.235l2.665 2.665c-.033.028-.07.051-.1.082L6.249 8.841zm4.514 4.784c-.663-.004-1.198-.542-1.2-1.205.003-.393.202-.73.496-.947l1.655 1.655c-.218.296-.556.496-.951.497zM9.93 6.102c.267.089.545.146.832.146 1.448-.004 2.62-1.177 2.624-2.625-.005-1.447-1.177-2.619-2.624-2.623-1.447.004-2.619 1.176-2.624 2.624 0 .28.048.558.137.823L9.93 6.102zm.833-3.676c.663.001 1.201.537 1.205 1.2-.002.664-.54 1.203-1.205 1.205-.663-.004-1.198-.542-1.2-1.205.004-.661.539-1.196 1.2-1.2z"/>
</svg>