<svg xmlns="http://www.w3.org/2000/svg" width="16" height="16" viewBox="0 0 16 16">
  <path d="m14.386 2.529-.911-.909c-.389-.392-.931-.617-1.484-.617H7.293c-1.155 0-2.095.939-2.095 2.095v.704H3.099C1.942 3.802 1 4.744 1 5.901v6.997c0 1.157.942 2.099 2.099 2.099h5.597c1.157 0 2.099-.942 2.099-2.099v-.694h2.11c1.155 0 2.095-.939 2.095-2.095V4.01c0-.55-.223-1.089-.614-1.481zM12.901 4.01v.491h-1.399V3.102h.486l.913.908zm-4.206 8.888H3.099V5.901h2.099v4.208c0 1.155.94 2.095 2.095 2.095h1.402v.694zm-1.398-2.789-.004-7.007h2.11v1.837c0 .916.745 1.662 1.662 1.662h1.838l.003 3.504-5.609.004z"/>
</svg>