<svg xmlns="http://www.w3.org/2000/svg" width="16" height="16" viewBox="0 0 16 16">
  <path d="M9 15c-.552 0-1-.448-1-1s.448-1 1-1h5c.552 0 1 .448 1 1s-.448 1-1 1H9zm-7.5-.1c-.276 0-.5-.224-.5-.5V9.8c0-.276.224-.5.5-.5h4.6c.276 0 .5.224.5.5v4.606c0 .276-.224.5-.5.5L1.5 14.9zM9 11.3c-.552 0-1-.448-1-1s.448-1 1-1h5c.552 0 1 .448 1 1s-.448 1-1 1H9zM1.5 6.6c-.276 0-.5-.224-.5-.5V1.5c0-.276.224-.5.5-.5h4.6c.276 0 .5.224.5.5v4.606c0 .276-.224.5-.5.5L1.5 6.6zM9 6.5c-.552 0-1-.448-1-1s.448-1 1-1h5c.552 0 1 .448 1 1s-.448 1-1 1H9zM9 3c-.552 0-1-.448-1-1s.448-1 1-1h5c.552 0 1 .448 1 1s-.448 1-1 1H9z" fill="white"/>
</svg>
