<svg xmlns="http://www.w3.org/2000/svg" width="16" height="16" viewBox="0 0 16 16">
  <path d="M9.121 15H6.878c-.351-.001-.635-.283-.638-.634v-1.11c-.03-.378-.25-.714-.585-.892-.142-.073-.281-.154-.415-.241-.32-.204-.721-.233-1.067-.077l-.993.535c-.31.168-.697.056-.869-.252L1.243 10.39c-.168-.302-.059-.682.242-.85.005-.002.009-.005.013-.007L2.477 9c.32-.2.514-.551.514-.929v-.238c.008-.377-.178-.732-.492-.94l-.756-.432c-.302-.168-.41-.549-.242-.851.002-.004.003-.007.005-.01l1.118-1.92c.179-.303.568-.406.873-.231l.757.427c.153.072.32.11.489.11.206 0 .408-.056.585-.162.1-.064.212-.128.327-.189.335-.176.556-.512.585-.889V1.633c.002-.35.286-.632.636-.633h2.243c.351-.001.637.282.638.633v1.11c.028.379.25.716.586.892.146.078.285.159.411.24.322.203.724.232 1.071.077l.988-.535c.31-.169.698-.057.869.252l1.075 1.941c.168.303.058.685-.245.852-.004.002-.007.004-.011.006L13.516 7c-.318.2-.512.55-.514.926v.24c-.007.377.177.732.49.942l.758.43c.302.167.411.548.244.85-.002.003-.004.007-.006.01l-1.117 1.92c-.179.302-.567.405-.872.23l-.754-.426c-.344-.164-.748-.144-1.075.052-.1.064-.214.127-.326.189-.336.173-.558.509-.585.887v1.114c-.002.351-.287.635-.638.636zM8.033 5.534C6.672 5.524 5.56 6.62 5.55 7.981s1.086 2.473 2.447 2.483h.02c1.361.007 2.471-1.09 2.478-2.451s-1.09-2.471-2.451-2.479h-.011z"/>
</svg>