<svg xmlns="http://www.w3.org/2000/svg" width="16" height="16" viewBox="0 0 16 16">
  <path d="m3.802 13.279-1.368 1.367c-.105.104-.26.14-.4.093a.39072.39072 0 0 1-.261-.323l-.6-5.137c-.021-.164.037-.328.155-.444.117-.116.281-.172.445-.151l5.1.636c.148.019.272.12.32.261.047.14.011.295-.093.4l-1.243 1.247c1.269 1.344 3.38 1.428 4.752.189.473-.389.828-.902 1.024-1.482.068-.232.292-.381.532-.356l1.65.192c.139.014.266.087.348.2.083.116.112.262.079.4-.302 1.117-.913 2.126-1.761 2.912-1.173 1.105-2.724 1.719-4.335 1.717-1.615.003-3.169-.613-4.344-1.721zm10.43-5.965-5.101-.636c-.148-.019-.272-.12-.32-.261-.047-.14-.011-.295.093-.4l1.243-1.245c-1.269-1.344-3.38-1.428-4.752-.189-.472.388-.827.901-1.023 1.48-.069.231-.292.382-.532.359l-1.649-.193c-.14-.014-.267-.087-.349-.2-.083-.116-.112-.262-.078-.4.302-1.117.912-2.126 1.76-2.913 2.439-2.29 6.239-2.287 8.675.006l1.367-1.367c.105-.105.26-.141.4-.094.142.049.243.174.261.323l.6 5.132c.021.165-.036.33-.153.447-.1.101-.236.158-.378.158-.021-.002-.042-.004-.064-.007z"/>
</svg>