<svg xmlns="http://www.w3.org/2000/svg" width="16" height="16" viewBox="0 0 16 16">
  <path d="M8 1C4.134 1 1 4.134 1 8s3.134 7 7 7c3.864-.004 6.996-3.136 7-7 0-3.866-3.134-7-7-7zm1.096 10.095c-.072.47-.456.854-.926.926-.754.115-1.394-.525-1.279-1.279.072-.47.456-.854.926-.926.755-.116 1.395.525 1.279 1.279zm.441-2.835c-.345.199-.618.357-.618.606 0 .269-.218.487-.487.487h-.876c-.269 0-.487-.218-.487-.487v-.062c.021-.675.44-1.272 1.066-1.524l.434-.248c.328-.197.517-.367.517-.651 0-.436-.558-.766-1.057-.766-.448-.005-.869.212-1.123.58l-.027.033c-.195.238-.543.28-.788.094 0 0-.208-.148-.383-.322-.242-.24-.267-.513-.089-.743.606-.781 1.529-1.261 2.529-1.22.672.01 1.321.25 1.837.68.525.402.84 1.019.858 1.68-.021.828-.536 1.562-1.306 1.863z"/>
</svg>