<svg xmlns="http://www.w3.org/2000/svg" width="16" height="16" viewBox="0 0 16 16">
  <path d="M2.5 14.5c-.828 0-1.5-.672-1.5-1.5V3c0-.828.672-1.5 1.5-1.5h11c.823.012 1.488.677 1.5 1.5v10c0 .828-.672 1.5-1.5 1.5h-11zm.25-2.347c0 .331.269.6.6.6h9.306c.331 0 .6-.269.6-.6V5h-10.5l-.006 7.153zm4-8.9c0 .414.336.75.75.75s.75-.336.751-.75c-.001-.414-.337-.75-.751-.75-.413.001-.748.334-.75.747v.003zm-2 0c0 .414.336.75.75.75s.75-.336.751-.75c-.001-.414-.337-.75-.751-.75-.413.001-.748.334-.75.747v.003zm-2 0c0 .414.336.75.75.75s.75-.336.75-.75-.336-.75-.75-.75c-.413.001-.748.334-.75.747v.003zM8.48 12h-.96c-.151 0-.273-.121-.274-.272v-.475c-.012-.162-.107-.307-.25-.383-.061-.03-.12-.064-.178-.1-.077-.05-.167-.076-.259-.076-.069 0-.137.014-.2.042l-.426.229c-.041.023-.086.035-.133.035-.1 0-.192-.054-.241-.141l-.458-.831c-.034-.063-.043-.138-.023-.207.021-.069.068-.126.132-.16l.419-.229c.138-.086.222-.237.221-.4v-.1c.003-.161-.077-.311-.211-.4l-.324-.184c-.063-.035-.11-.094-.129-.164-.019-.069-.009-.144.027-.206l.479-.823c.05-.084.14-.135.238-.135.048 0 .095.012.137.036l.324.184c.066.031.137.047.21.047.088 0 .175-.024.251-.069.044-.028.091-.055.14-.081.143-.076.238-.22.25-.382v-.477c.001-.15.123-.271.273-.271h.961c.072-.001.142.028.193.079.052.05.081.12.081.192v.476c.013.162.107.306.251.382.063.034.122.068.176.1.078.05.168.076.26.076.069 0 .137-.014.2-.042l.423-.23c.042-.025.091-.039.14-.04.1 0 .191.054.24.141l.461.833c.035.063.044.137.023.206-.021.069-.068.127-.132.161l-.422.228c-.138.086-.221.238-.22.4v.1c-.002.16.077.311.211.4l.324.184c.063.034.11.093.129.163.019.069.01.144-.026.206l-.479.823c-.05.084-.14.135-.238.135-.048 0-.095-.013-.137-.036l-.323-.183c-.065-.031-.137-.048-.209-.048-.089 0-.176.024-.252.07-.044.027-.092.055-.139.081-.144.075-.239.218-.251.38v.478c-.001.15-.123.271-.273.272L8.48 12zM6.958 8.99c-.004.581.461 1.058 1.042 1.067h.009c.279.001.547-.109.745-.306.203-.197.317-.468.316-.751-.001-.581-.469-1.052-1.05-1.057h-.005c-.579.002-1.05.468-1.057 1.047z"/>
</svg>