<svg xmlns="http://www.w3.org/2000/svg" width="16" height="16" viewBox="0 0 16 16">
  <path d="M12.2 15c-1.546 0-2.8-1.254-2.8-2.8 0-1.546 1.254-2.8 2.8-2.8 1.546 0 2.8 1.254 2.8 2.8S13.746 15 12.2 15zm-8.4 0C2.254 15 1 13.746 1 12.2s1.254-2.8 2.8-2.8 2.8 1.254 2.8 2.8S5.346 15 3.8 15zm8.4-8.4c-1.546 0-2.8-1.254-2.8-2.8 0-1.546 1.254-2.8 2.8-2.8C13.746 1 15 2.254 15 3.8s-1.254 2.8-2.8 2.8zm-8.4 0C2.254 6.6 1 5.346 1 3.8S2.254 1 3.8 1s2.8 1.254 2.8 2.8c0 1.546-1.254 2.8-2.8 2.8z" fill="white"/>
</svg>
